G04 #@! TF.GenerationSoftware,KiCad,Pcbnew,5.1.5+dfsg1-2build2*
G04 #@! TF.CreationDate,2020-11-20T18:41:41+01:00*
G04 #@! TF.ProjectId,Lightdome_SensorPCB,4c696768-7464-46f6-9d65-5f53656e736f,1*
G04 #@! TF.SameCoordinates,Original*
G04 #@! TF.FileFunction,Copper,L1,Top*
G04 #@! TF.FilePolarity,Positive*
%FSLAX46Y46*%
G04 Gerber Fmt 4.6, Leading zero omitted, Abs format (unit mm)*
G04 Created by KiCad (PCBNEW 5.1.5+dfsg1-2build2) date 2020-11-20 18:41:41*
%MOMM*%
%LPD*%
G04 APERTURE LIST*
%ADD10R,1.600000X0.700000*%
%ADD11R,1.000000X0.400000*%
%ADD12C,0.800000*%
%ADD13C,0.250000*%
G04 APERTURE END LIST*
D10*
X148310000Y-86995000D03*
X148310000Y-85725000D03*
X148310000Y-84455000D03*
X148310000Y-83185000D03*
D11*
X140775000Y-84420000D03*
X140775000Y-83820000D03*
X140775000Y-83220000D03*
X138625000Y-84420000D03*
X138625000Y-83820000D03*
X138625000Y-83220000D03*
D12*
X137160000Y-82550000D03*
X146050000Y-85090000D03*
X144780000Y-88900000D03*
X144145000Y-86995000D03*
X143510000Y-83820000D03*
D13*
X137830000Y-83220000D02*
X137160000Y-82550000D01*
X138625000Y-83220000D02*
X137830000Y-83220000D01*
X146685000Y-85725000D02*
X146050000Y-85090000D01*
X148310000Y-85725000D02*
X146685000Y-85725000D01*
X141570000Y-83220000D02*
X140775000Y-83220000D01*
X143510000Y-81280000D02*
X141570000Y-83220000D01*
X149860000Y-81280000D02*
X143510000Y-81280000D01*
X151130000Y-82550000D02*
X149860000Y-81280000D01*
X151130000Y-83820000D02*
X151130000Y-82550000D01*
X150495000Y-84455000D02*
X151130000Y-83820000D01*
X148310000Y-84455000D02*
X150495000Y-84455000D01*
X144780000Y-88900000D02*
X149860000Y-88900000D01*
X149860000Y-88900000D02*
X151130000Y-87630000D01*
X151130000Y-87630000D02*
X151130000Y-83820000D01*
X138625000Y-84870000D02*
X140115000Y-86360000D01*
X138625000Y-84420000D02*
X138625000Y-84870000D01*
X140115000Y-86360000D02*
X143510000Y-86360000D01*
X144145000Y-86995000D02*
X148310000Y-86995000D01*
X143510000Y-86360000D02*
X144145000Y-86995000D01*
X146625000Y-83820000D02*
X143510000Y-83820000D01*
X147260000Y-83185000D02*
X146625000Y-83820000D01*
X148310000Y-83185000D02*
X147260000Y-83185000D01*
X140775000Y-83820000D02*
X143510000Y-83820000D01*
M02*
