G04 #@! TF.GenerationSoftware,KiCad,Pcbnew,5.1.5+dfsg1-2build2*
G04 #@! TF.CreationDate,2020-12-04T16:47:08+01:00*
G04 #@! TF.ProjectId,Lightdome_SensorPCB,4c696768-7464-46f6-9d65-5f53656e736f,1*
G04 #@! TF.SameCoordinates,Original*
G04 #@! TF.FileFunction,Paste,Bot*
G04 #@! TF.FilePolarity,Positive*
%FSLAX46Y46*%
G04 Gerber Fmt 4.6, Leading zero omitted, Abs format (unit mm)*
G04 Created by KiCad (PCBNEW 5.1.5+dfsg1-2build2) date 2020-12-04 16:47:08*
%MOMM*%
%LPD*%
G04 APERTURE LIST*
%ADD10C,0.152400*%
G04 APERTURE END LIST*
D10*
G36*
X149484504Y-94231204D02*
G01*
X149508773Y-94234804D01*
X149532571Y-94240765D01*
X149555671Y-94249030D01*
X149577849Y-94259520D01*
X149598893Y-94272133D01*
X149618598Y-94286747D01*
X149636777Y-94303223D01*
X149653253Y-94321402D01*
X149667867Y-94341107D01*
X149680480Y-94362151D01*
X149690970Y-94384329D01*
X149699235Y-94407429D01*
X149705196Y-94431227D01*
X149708796Y-94455496D01*
X149710000Y-94480000D01*
X149710000Y-96980000D01*
X149708796Y-97004504D01*
X149705196Y-97028773D01*
X149699235Y-97052571D01*
X149690970Y-97075671D01*
X149680480Y-97097849D01*
X149667867Y-97118893D01*
X149653253Y-97138598D01*
X149636777Y-97156777D01*
X149618598Y-97173253D01*
X149598893Y-97187867D01*
X149577849Y-97200480D01*
X149555671Y-97210970D01*
X149532571Y-97219235D01*
X149508773Y-97225196D01*
X149484504Y-97228796D01*
X149460000Y-97230000D01*
X148360000Y-97230000D01*
X148335496Y-97228796D01*
X148311227Y-97225196D01*
X148287429Y-97219235D01*
X148264329Y-97210970D01*
X148242151Y-97200480D01*
X148221107Y-97187867D01*
X148201402Y-97173253D01*
X148183223Y-97156777D01*
X148166747Y-97138598D01*
X148152133Y-97118893D01*
X148139520Y-97097849D01*
X148129030Y-97075671D01*
X148120765Y-97052571D01*
X148114804Y-97028773D01*
X148111204Y-97004504D01*
X148110000Y-96980000D01*
X148110000Y-94480000D01*
X148111204Y-94455496D01*
X148114804Y-94431227D01*
X148120765Y-94407429D01*
X148129030Y-94384329D01*
X148139520Y-94362151D01*
X148152133Y-94341107D01*
X148166747Y-94321402D01*
X148183223Y-94303223D01*
X148201402Y-94286747D01*
X148221107Y-94272133D01*
X148242151Y-94259520D01*
X148264329Y-94249030D01*
X148287429Y-94240765D01*
X148311227Y-94234804D01*
X148335496Y-94231204D01*
X148360000Y-94230000D01*
X149460000Y-94230000D01*
X149484504Y-94231204D01*
G37*
G36*
X138684504Y-94231204D02*
G01*
X138708773Y-94234804D01*
X138732571Y-94240765D01*
X138755671Y-94249030D01*
X138777849Y-94259520D01*
X138798893Y-94272133D01*
X138818598Y-94286747D01*
X138836777Y-94303223D01*
X138853253Y-94321402D01*
X138867867Y-94341107D01*
X138880480Y-94362151D01*
X138890970Y-94384329D01*
X138899235Y-94407429D01*
X138905196Y-94431227D01*
X138908796Y-94455496D01*
X138910000Y-94480000D01*
X138910000Y-96980000D01*
X138908796Y-97004504D01*
X138905196Y-97028773D01*
X138899235Y-97052571D01*
X138890970Y-97075671D01*
X138880480Y-97097849D01*
X138867867Y-97118893D01*
X138853253Y-97138598D01*
X138836777Y-97156777D01*
X138818598Y-97173253D01*
X138798893Y-97187867D01*
X138777849Y-97200480D01*
X138755671Y-97210970D01*
X138732571Y-97219235D01*
X138708773Y-97225196D01*
X138684504Y-97228796D01*
X138660000Y-97230000D01*
X137560000Y-97230000D01*
X137535496Y-97228796D01*
X137511227Y-97225196D01*
X137487429Y-97219235D01*
X137464329Y-97210970D01*
X137442151Y-97200480D01*
X137421107Y-97187867D01*
X137401402Y-97173253D01*
X137383223Y-97156777D01*
X137366747Y-97138598D01*
X137352133Y-97118893D01*
X137339520Y-97097849D01*
X137329030Y-97075671D01*
X137320765Y-97052571D01*
X137314804Y-97028773D01*
X137311204Y-97004504D01*
X137310000Y-96980000D01*
X137310000Y-94480000D01*
X137311204Y-94455496D01*
X137314804Y-94431227D01*
X137320765Y-94407429D01*
X137329030Y-94384329D01*
X137339520Y-94362151D01*
X137352133Y-94341107D01*
X137366747Y-94321402D01*
X137383223Y-94303223D01*
X137401402Y-94286747D01*
X137421107Y-94272133D01*
X137442151Y-94259520D01*
X137464329Y-94249030D01*
X137487429Y-94240765D01*
X137511227Y-94234804D01*
X137535496Y-94231204D01*
X137560000Y-94230000D01*
X138660000Y-94230000D01*
X138684504Y-94231204D01*
G37*
G36*
X146784504Y-90731204D02*
G01*
X146808773Y-90734804D01*
X146832571Y-90740765D01*
X146855671Y-90749030D01*
X146877849Y-90759520D01*
X146898893Y-90772133D01*
X146918598Y-90786747D01*
X146936777Y-90803223D01*
X146953253Y-90821402D01*
X146967867Y-90841107D01*
X146980480Y-90862151D01*
X146990970Y-90884329D01*
X146999235Y-90907429D01*
X147005196Y-90931227D01*
X147008796Y-90955496D01*
X147010000Y-90980000D01*
X147010000Y-95980000D01*
X147008796Y-96004504D01*
X147005196Y-96028773D01*
X146999235Y-96052571D01*
X146990970Y-96075671D01*
X146980480Y-96097849D01*
X146967867Y-96118893D01*
X146953253Y-96138598D01*
X146936777Y-96156777D01*
X146918598Y-96173253D01*
X146898893Y-96187867D01*
X146877849Y-96200480D01*
X146855671Y-96210970D01*
X146832571Y-96219235D01*
X146808773Y-96225196D01*
X146784504Y-96228796D01*
X146760000Y-96230000D01*
X146260000Y-96230000D01*
X146235496Y-96228796D01*
X146211227Y-96225196D01*
X146187429Y-96219235D01*
X146164329Y-96210970D01*
X146142151Y-96200480D01*
X146121107Y-96187867D01*
X146101402Y-96173253D01*
X146083223Y-96156777D01*
X146066747Y-96138598D01*
X146052133Y-96118893D01*
X146039520Y-96097849D01*
X146029030Y-96075671D01*
X146020765Y-96052571D01*
X146014804Y-96028773D01*
X146011204Y-96004504D01*
X146010000Y-95980000D01*
X146010000Y-90980000D01*
X146011204Y-90955496D01*
X146014804Y-90931227D01*
X146020765Y-90907429D01*
X146029030Y-90884329D01*
X146039520Y-90862151D01*
X146052133Y-90841107D01*
X146066747Y-90821402D01*
X146083223Y-90803223D01*
X146101402Y-90786747D01*
X146121107Y-90772133D01*
X146142151Y-90759520D01*
X146164329Y-90749030D01*
X146187429Y-90740765D01*
X146211227Y-90734804D01*
X146235496Y-90731204D01*
X146260000Y-90730000D01*
X146760000Y-90730000D01*
X146784504Y-90731204D01*
G37*
G36*
X144784504Y-90731204D02*
G01*
X144808773Y-90734804D01*
X144832571Y-90740765D01*
X144855671Y-90749030D01*
X144877849Y-90759520D01*
X144898893Y-90772133D01*
X144918598Y-90786747D01*
X144936777Y-90803223D01*
X144953253Y-90821402D01*
X144967867Y-90841107D01*
X144980480Y-90862151D01*
X144990970Y-90884329D01*
X144999235Y-90907429D01*
X145005196Y-90931227D01*
X145008796Y-90955496D01*
X145010000Y-90980000D01*
X145010000Y-95980000D01*
X145008796Y-96004504D01*
X145005196Y-96028773D01*
X144999235Y-96052571D01*
X144990970Y-96075671D01*
X144980480Y-96097849D01*
X144967867Y-96118893D01*
X144953253Y-96138598D01*
X144936777Y-96156777D01*
X144918598Y-96173253D01*
X144898893Y-96187867D01*
X144877849Y-96200480D01*
X144855671Y-96210970D01*
X144832571Y-96219235D01*
X144808773Y-96225196D01*
X144784504Y-96228796D01*
X144760000Y-96230000D01*
X144260000Y-96230000D01*
X144235496Y-96228796D01*
X144211227Y-96225196D01*
X144187429Y-96219235D01*
X144164329Y-96210970D01*
X144142151Y-96200480D01*
X144121107Y-96187867D01*
X144101402Y-96173253D01*
X144083223Y-96156777D01*
X144066747Y-96138598D01*
X144052133Y-96118893D01*
X144039520Y-96097849D01*
X144029030Y-96075671D01*
X144020765Y-96052571D01*
X144014804Y-96028773D01*
X144011204Y-96004504D01*
X144010000Y-95980000D01*
X144010000Y-90980000D01*
X144011204Y-90955496D01*
X144014804Y-90931227D01*
X144020765Y-90907429D01*
X144029030Y-90884329D01*
X144039520Y-90862151D01*
X144052133Y-90841107D01*
X144066747Y-90821402D01*
X144083223Y-90803223D01*
X144101402Y-90786747D01*
X144121107Y-90772133D01*
X144142151Y-90759520D01*
X144164329Y-90749030D01*
X144187429Y-90740765D01*
X144211227Y-90734804D01*
X144235496Y-90731204D01*
X144260000Y-90730000D01*
X144760000Y-90730000D01*
X144784504Y-90731204D01*
G37*
G36*
X142784504Y-90731204D02*
G01*
X142808773Y-90734804D01*
X142832571Y-90740765D01*
X142855671Y-90749030D01*
X142877849Y-90759520D01*
X142898893Y-90772133D01*
X142918598Y-90786747D01*
X142936777Y-90803223D01*
X142953253Y-90821402D01*
X142967867Y-90841107D01*
X142980480Y-90862151D01*
X142990970Y-90884329D01*
X142999235Y-90907429D01*
X143005196Y-90931227D01*
X143008796Y-90955496D01*
X143010000Y-90980000D01*
X143010000Y-95980000D01*
X143008796Y-96004504D01*
X143005196Y-96028773D01*
X142999235Y-96052571D01*
X142990970Y-96075671D01*
X142980480Y-96097849D01*
X142967867Y-96118893D01*
X142953253Y-96138598D01*
X142936777Y-96156777D01*
X142918598Y-96173253D01*
X142898893Y-96187867D01*
X142877849Y-96200480D01*
X142855671Y-96210970D01*
X142832571Y-96219235D01*
X142808773Y-96225196D01*
X142784504Y-96228796D01*
X142760000Y-96230000D01*
X142260000Y-96230000D01*
X142235496Y-96228796D01*
X142211227Y-96225196D01*
X142187429Y-96219235D01*
X142164329Y-96210970D01*
X142142151Y-96200480D01*
X142121107Y-96187867D01*
X142101402Y-96173253D01*
X142083223Y-96156777D01*
X142066747Y-96138598D01*
X142052133Y-96118893D01*
X142039520Y-96097849D01*
X142029030Y-96075671D01*
X142020765Y-96052571D01*
X142014804Y-96028773D01*
X142011204Y-96004504D01*
X142010000Y-95980000D01*
X142010000Y-90980000D01*
X142011204Y-90955496D01*
X142014804Y-90931227D01*
X142020765Y-90907429D01*
X142029030Y-90884329D01*
X142039520Y-90862151D01*
X142052133Y-90841107D01*
X142066747Y-90821402D01*
X142083223Y-90803223D01*
X142101402Y-90786747D01*
X142121107Y-90772133D01*
X142142151Y-90759520D01*
X142164329Y-90749030D01*
X142187429Y-90740765D01*
X142211227Y-90734804D01*
X142235496Y-90731204D01*
X142260000Y-90730000D01*
X142760000Y-90730000D01*
X142784504Y-90731204D01*
G37*
G36*
X140784504Y-90731204D02*
G01*
X140808773Y-90734804D01*
X140832571Y-90740765D01*
X140855671Y-90749030D01*
X140877849Y-90759520D01*
X140898893Y-90772133D01*
X140918598Y-90786747D01*
X140936777Y-90803223D01*
X140953253Y-90821402D01*
X140967867Y-90841107D01*
X140980480Y-90862151D01*
X140990970Y-90884329D01*
X140999235Y-90907429D01*
X141005196Y-90931227D01*
X141008796Y-90955496D01*
X141010000Y-90980000D01*
X141010000Y-95980000D01*
X141008796Y-96004504D01*
X141005196Y-96028773D01*
X140999235Y-96052571D01*
X140990970Y-96075671D01*
X140980480Y-96097849D01*
X140967867Y-96118893D01*
X140953253Y-96138598D01*
X140936777Y-96156777D01*
X140918598Y-96173253D01*
X140898893Y-96187867D01*
X140877849Y-96200480D01*
X140855671Y-96210970D01*
X140832571Y-96219235D01*
X140808773Y-96225196D01*
X140784504Y-96228796D01*
X140760000Y-96230000D01*
X140260000Y-96230000D01*
X140235496Y-96228796D01*
X140211227Y-96225196D01*
X140187429Y-96219235D01*
X140164329Y-96210970D01*
X140142151Y-96200480D01*
X140121107Y-96187867D01*
X140101402Y-96173253D01*
X140083223Y-96156777D01*
X140066747Y-96138598D01*
X140052133Y-96118893D01*
X140039520Y-96097849D01*
X140029030Y-96075671D01*
X140020765Y-96052571D01*
X140014804Y-96028773D01*
X140011204Y-96004504D01*
X140010000Y-95980000D01*
X140010000Y-90980000D01*
X140011204Y-90955496D01*
X140014804Y-90931227D01*
X140020765Y-90907429D01*
X140029030Y-90884329D01*
X140039520Y-90862151D01*
X140052133Y-90841107D01*
X140066747Y-90821402D01*
X140083223Y-90803223D01*
X140101402Y-90786747D01*
X140121107Y-90772133D01*
X140142151Y-90759520D01*
X140164329Y-90749030D01*
X140187429Y-90740765D01*
X140211227Y-90734804D01*
X140235496Y-90731204D01*
X140260000Y-90730000D01*
X140760000Y-90730000D01*
X140784504Y-90731204D01*
G37*
M02*
