G04 #@! TF.GenerationSoftware,KiCad,Pcbnew,5.1.5+dfsg1-2build2*
G04 #@! TF.CreationDate,2020-11-20T18:41:41+01:00*
G04 #@! TF.ProjectId,Lightdome_SensorPCB,4c696768-7464-46f6-9d65-5f53656e736f,1*
G04 #@! TF.SameCoordinates,Original*
G04 #@! TF.FileFunction,Soldermask,Top*
G04 #@! TF.FilePolarity,Negative*
%FSLAX46Y46*%
G04 Gerber Fmt 4.6, Leading zero omitted, Abs format (unit mm)*
G04 Created by KiCad (PCBNEW 5.1.5+dfsg1-2build2) date 2020-11-20 18:41:41*
%MOMM*%
%LPD*%
G04 APERTURE LIST*
%ADD10C,0.152400*%
G04 APERTURE END LIST*
D10*
G36*
X149110000Y-87345000D02*
G01*
X147510000Y-87345000D01*
X147510000Y-86645000D01*
X149110000Y-86645000D01*
X149110000Y-87345000D01*
G37*
G36*
X149110000Y-86075000D02*
G01*
X147510000Y-86075000D01*
X147510000Y-85375000D01*
X149110000Y-85375000D01*
X149110000Y-86075000D01*
G37*
G36*
X149110000Y-84805000D02*
G01*
X147510000Y-84805000D01*
X147510000Y-84105000D01*
X149110000Y-84105000D01*
X149110000Y-84805000D01*
G37*
G36*
X139125000Y-84620000D02*
G01*
X138125000Y-84620000D01*
X138125000Y-84220000D01*
X139125000Y-84220000D01*
X139125000Y-84620000D01*
G37*
G36*
X141275000Y-84620000D02*
G01*
X140275000Y-84620000D01*
X140275000Y-84220000D01*
X141275000Y-84220000D01*
X141275000Y-84620000D01*
G37*
G36*
X141275000Y-84020000D02*
G01*
X140275000Y-84020000D01*
X140275000Y-83620000D01*
X141275000Y-83620000D01*
X141275000Y-84020000D01*
G37*
G36*
X139125000Y-84020000D02*
G01*
X138125000Y-84020000D01*
X138125000Y-83620000D01*
X139125000Y-83620000D01*
X139125000Y-84020000D01*
G37*
G36*
X149110000Y-83535000D02*
G01*
X147510000Y-83535000D01*
X147510000Y-82835000D01*
X149110000Y-82835000D01*
X149110000Y-83535000D01*
G37*
G36*
X141275000Y-83420000D02*
G01*
X140275000Y-83420000D01*
X140275000Y-83020000D01*
X141275000Y-83020000D01*
X141275000Y-83420000D01*
G37*
G36*
X139125000Y-83420000D02*
G01*
X138125000Y-83420000D01*
X138125000Y-83020000D01*
X139125000Y-83020000D01*
X139125000Y-83420000D01*
G37*
M02*
