G04 #@! TF.GenerationSoftware,KiCad,Pcbnew,5.1.5+dfsg1-2build2*
G04 #@! TF.CreationDate,2020-12-04T16:47:08+01:00*
G04 #@! TF.ProjectId,Lightdome_SensorPCB,4c696768-7464-46f6-9d65-5f53656e736f,1*
G04 #@! TF.SameCoordinates,Original*
G04 #@! TF.FileFunction,Copper,L2,Bot*
G04 #@! TF.FilePolarity,Positive*
%FSLAX46Y46*%
G04 Gerber Fmt 4.6, Leading zero omitted, Abs format (unit mm)*
G04 Created by KiCad (PCBNEW 5.1.5+dfsg1-2build2) date 2020-12-04 16:47:08*
%MOMM*%
%LPD*%
G04 APERTURE LIST*
%ADD10C,0.152400*%
%ADD11C,0.800000*%
%ADD12C,0.450000*%
%ADD13C,0.250000*%
%ADD14C,0.254000*%
G04 APERTURE END LIST*
G04 #@! TA.AperFunction,SMDPad,CuDef*
D10*
G36*
X149484504Y-94231204D02*
G01*
X149508773Y-94234804D01*
X149532571Y-94240765D01*
X149555671Y-94249030D01*
X149577849Y-94259520D01*
X149598893Y-94272133D01*
X149618598Y-94286747D01*
X149636777Y-94303223D01*
X149653253Y-94321402D01*
X149667867Y-94341107D01*
X149680480Y-94362151D01*
X149690970Y-94384329D01*
X149699235Y-94407429D01*
X149705196Y-94431227D01*
X149708796Y-94455496D01*
X149710000Y-94480000D01*
X149710000Y-96980000D01*
X149708796Y-97004504D01*
X149705196Y-97028773D01*
X149699235Y-97052571D01*
X149690970Y-97075671D01*
X149680480Y-97097849D01*
X149667867Y-97118893D01*
X149653253Y-97138598D01*
X149636777Y-97156777D01*
X149618598Y-97173253D01*
X149598893Y-97187867D01*
X149577849Y-97200480D01*
X149555671Y-97210970D01*
X149532571Y-97219235D01*
X149508773Y-97225196D01*
X149484504Y-97228796D01*
X149460000Y-97230000D01*
X148360000Y-97230000D01*
X148335496Y-97228796D01*
X148311227Y-97225196D01*
X148287429Y-97219235D01*
X148264329Y-97210970D01*
X148242151Y-97200480D01*
X148221107Y-97187867D01*
X148201402Y-97173253D01*
X148183223Y-97156777D01*
X148166747Y-97138598D01*
X148152133Y-97118893D01*
X148139520Y-97097849D01*
X148129030Y-97075671D01*
X148120765Y-97052571D01*
X148114804Y-97028773D01*
X148111204Y-97004504D01*
X148110000Y-96980000D01*
X148110000Y-94480000D01*
X148111204Y-94455496D01*
X148114804Y-94431227D01*
X148120765Y-94407429D01*
X148129030Y-94384329D01*
X148139520Y-94362151D01*
X148152133Y-94341107D01*
X148166747Y-94321402D01*
X148183223Y-94303223D01*
X148201402Y-94286747D01*
X148221107Y-94272133D01*
X148242151Y-94259520D01*
X148264329Y-94249030D01*
X148287429Y-94240765D01*
X148311227Y-94234804D01*
X148335496Y-94231204D01*
X148360000Y-94230000D01*
X149460000Y-94230000D01*
X149484504Y-94231204D01*
G37*
G04 #@! TD.AperFunction*
G04 #@! TA.AperFunction,SMDPad,CuDef*
G36*
X138684504Y-94231204D02*
G01*
X138708773Y-94234804D01*
X138732571Y-94240765D01*
X138755671Y-94249030D01*
X138777849Y-94259520D01*
X138798893Y-94272133D01*
X138818598Y-94286747D01*
X138836777Y-94303223D01*
X138853253Y-94321402D01*
X138867867Y-94341107D01*
X138880480Y-94362151D01*
X138890970Y-94384329D01*
X138899235Y-94407429D01*
X138905196Y-94431227D01*
X138908796Y-94455496D01*
X138910000Y-94480000D01*
X138910000Y-96980000D01*
X138908796Y-97004504D01*
X138905196Y-97028773D01*
X138899235Y-97052571D01*
X138890970Y-97075671D01*
X138880480Y-97097849D01*
X138867867Y-97118893D01*
X138853253Y-97138598D01*
X138836777Y-97156777D01*
X138818598Y-97173253D01*
X138798893Y-97187867D01*
X138777849Y-97200480D01*
X138755671Y-97210970D01*
X138732571Y-97219235D01*
X138708773Y-97225196D01*
X138684504Y-97228796D01*
X138660000Y-97230000D01*
X137560000Y-97230000D01*
X137535496Y-97228796D01*
X137511227Y-97225196D01*
X137487429Y-97219235D01*
X137464329Y-97210970D01*
X137442151Y-97200480D01*
X137421107Y-97187867D01*
X137401402Y-97173253D01*
X137383223Y-97156777D01*
X137366747Y-97138598D01*
X137352133Y-97118893D01*
X137339520Y-97097849D01*
X137329030Y-97075671D01*
X137320765Y-97052571D01*
X137314804Y-97028773D01*
X137311204Y-97004504D01*
X137310000Y-96980000D01*
X137310000Y-94480000D01*
X137311204Y-94455496D01*
X137314804Y-94431227D01*
X137320765Y-94407429D01*
X137329030Y-94384329D01*
X137339520Y-94362151D01*
X137352133Y-94341107D01*
X137366747Y-94321402D01*
X137383223Y-94303223D01*
X137401402Y-94286747D01*
X137421107Y-94272133D01*
X137442151Y-94259520D01*
X137464329Y-94249030D01*
X137487429Y-94240765D01*
X137511227Y-94234804D01*
X137535496Y-94231204D01*
X137560000Y-94230000D01*
X138660000Y-94230000D01*
X138684504Y-94231204D01*
G37*
G04 #@! TD.AperFunction*
G04 #@! TA.AperFunction,SMDPad,CuDef*
G36*
X146784504Y-90731204D02*
G01*
X146808773Y-90734804D01*
X146832571Y-90740765D01*
X146855671Y-90749030D01*
X146877849Y-90759520D01*
X146898893Y-90772133D01*
X146918598Y-90786747D01*
X146936777Y-90803223D01*
X146953253Y-90821402D01*
X146967867Y-90841107D01*
X146980480Y-90862151D01*
X146990970Y-90884329D01*
X146999235Y-90907429D01*
X147005196Y-90931227D01*
X147008796Y-90955496D01*
X147010000Y-90980000D01*
X147010000Y-95980000D01*
X147008796Y-96004504D01*
X147005196Y-96028773D01*
X146999235Y-96052571D01*
X146990970Y-96075671D01*
X146980480Y-96097849D01*
X146967867Y-96118893D01*
X146953253Y-96138598D01*
X146936777Y-96156777D01*
X146918598Y-96173253D01*
X146898893Y-96187867D01*
X146877849Y-96200480D01*
X146855671Y-96210970D01*
X146832571Y-96219235D01*
X146808773Y-96225196D01*
X146784504Y-96228796D01*
X146760000Y-96230000D01*
X146260000Y-96230000D01*
X146235496Y-96228796D01*
X146211227Y-96225196D01*
X146187429Y-96219235D01*
X146164329Y-96210970D01*
X146142151Y-96200480D01*
X146121107Y-96187867D01*
X146101402Y-96173253D01*
X146083223Y-96156777D01*
X146066747Y-96138598D01*
X146052133Y-96118893D01*
X146039520Y-96097849D01*
X146029030Y-96075671D01*
X146020765Y-96052571D01*
X146014804Y-96028773D01*
X146011204Y-96004504D01*
X146010000Y-95980000D01*
X146010000Y-90980000D01*
X146011204Y-90955496D01*
X146014804Y-90931227D01*
X146020765Y-90907429D01*
X146029030Y-90884329D01*
X146039520Y-90862151D01*
X146052133Y-90841107D01*
X146066747Y-90821402D01*
X146083223Y-90803223D01*
X146101402Y-90786747D01*
X146121107Y-90772133D01*
X146142151Y-90759520D01*
X146164329Y-90749030D01*
X146187429Y-90740765D01*
X146211227Y-90734804D01*
X146235496Y-90731204D01*
X146260000Y-90730000D01*
X146760000Y-90730000D01*
X146784504Y-90731204D01*
G37*
G04 #@! TD.AperFunction*
G04 #@! TA.AperFunction,SMDPad,CuDef*
G36*
X144784504Y-90731204D02*
G01*
X144808773Y-90734804D01*
X144832571Y-90740765D01*
X144855671Y-90749030D01*
X144877849Y-90759520D01*
X144898893Y-90772133D01*
X144918598Y-90786747D01*
X144936777Y-90803223D01*
X144953253Y-90821402D01*
X144967867Y-90841107D01*
X144980480Y-90862151D01*
X144990970Y-90884329D01*
X144999235Y-90907429D01*
X145005196Y-90931227D01*
X145008796Y-90955496D01*
X145010000Y-90980000D01*
X145010000Y-95980000D01*
X145008796Y-96004504D01*
X145005196Y-96028773D01*
X144999235Y-96052571D01*
X144990970Y-96075671D01*
X144980480Y-96097849D01*
X144967867Y-96118893D01*
X144953253Y-96138598D01*
X144936777Y-96156777D01*
X144918598Y-96173253D01*
X144898893Y-96187867D01*
X144877849Y-96200480D01*
X144855671Y-96210970D01*
X144832571Y-96219235D01*
X144808773Y-96225196D01*
X144784504Y-96228796D01*
X144760000Y-96230000D01*
X144260000Y-96230000D01*
X144235496Y-96228796D01*
X144211227Y-96225196D01*
X144187429Y-96219235D01*
X144164329Y-96210970D01*
X144142151Y-96200480D01*
X144121107Y-96187867D01*
X144101402Y-96173253D01*
X144083223Y-96156777D01*
X144066747Y-96138598D01*
X144052133Y-96118893D01*
X144039520Y-96097849D01*
X144029030Y-96075671D01*
X144020765Y-96052571D01*
X144014804Y-96028773D01*
X144011204Y-96004504D01*
X144010000Y-95980000D01*
X144010000Y-90980000D01*
X144011204Y-90955496D01*
X144014804Y-90931227D01*
X144020765Y-90907429D01*
X144029030Y-90884329D01*
X144039520Y-90862151D01*
X144052133Y-90841107D01*
X144066747Y-90821402D01*
X144083223Y-90803223D01*
X144101402Y-90786747D01*
X144121107Y-90772133D01*
X144142151Y-90759520D01*
X144164329Y-90749030D01*
X144187429Y-90740765D01*
X144211227Y-90734804D01*
X144235496Y-90731204D01*
X144260000Y-90730000D01*
X144760000Y-90730000D01*
X144784504Y-90731204D01*
G37*
G04 #@! TD.AperFunction*
G04 #@! TA.AperFunction,SMDPad,CuDef*
G36*
X142784504Y-90731204D02*
G01*
X142808773Y-90734804D01*
X142832571Y-90740765D01*
X142855671Y-90749030D01*
X142877849Y-90759520D01*
X142898893Y-90772133D01*
X142918598Y-90786747D01*
X142936777Y-90803223D01*
X142953253Y-90821402D01*
X142967867Y-90841107D01*
X142980480Y-90862151D01*
X142990970Y-90884329D01*
X142999235Y-90907429D01*
X143005196Y-90931227D01*
X143008796Y-90955496D01*
X143010000Y-90980000D01*
X143010000Y-95980000D01*
X143008796Y-96004504D01*
X143005196Y-96028773D01*
X142999235Y-96052571D01*
X142990970Y-96075671D01*
X142980480Y-96097849D01*
X142967867Y-96118893D01*
X142953253Y-96138598D01*
X142936777Y-96156777D01*
X142918598Y-96173253D01*
X142898893Y-96187867D01*
X142877849Y-96200480D01*
X142855671Y-96210970D01*
X142832571Y-96219235D01*
X142808773Y-96225196D01*
X142784504Y-96228796D01*
X142760000Y-96230000D01*
X142260000Y-96230000D01*
X142235496Y-96228796D01*
X142211227Y-96225196D01*
X142187429Y-96219235D01*
X142164329Y-96210970D01*
X142142151Y-96200480D01*
X142121107Y-96187867D01*
X142101402Y-96173253D01*
X142083223Y-96156777D01*
X142066747Y-96138598D01*
X142052133Y-96118893D01*
X142039520Y-96097849D01*
X142029030Y-96075671D01*
X142020765Y-96052571D01*
X142014804Y-96028773D01*
X142011204Y-96004504D01*
X142010000Y-95980000D01*
X142010000Y-90980000D01*
X142011204Y-90955496D01*
X142014804Y-90931227D01*
X142020765Y-90907429D01*
X142029030Y-90884329D01*
X142039520Y-90862151D01*
X142052133Y-90841107D01*
X142066747Y-90821402D01*
X142083223Y-90803223D01*
X142101402Y-90786747D01*
X142121107Y-90772133D01*
X142142151Y-90759520D01*
X142164329Y-90749030D01*
X142187429Y-90740765D01*
X142211227Y-90734804D01*
X142235496Y-90731204D01*
X142260000Y-90730000D01*
X142760000Y-90730000D01*
X142784504Y-90731204D01*
G37*
G04 #@! TD.AperFunction*
G04 #@! TA.AperFunction,SMDPad,CuDef*
G36*
X140784504Y-90731204D02*
G01*
X140808773Y-90734804D01*
X140832571Y-90740765D01*
X140855671Y-90749030D01*
X140877849Y-90759520D01*
X140898893Y-90772133D01*
X140918598Y-90786747D01*
X140936777Y-90803223D01*
X140953253Y-90821402D01*
X140967867Y-90841107D01*
X140980480Y-90862151D01*
X140990970Y-90884329D01*
X140999235Y-90907429D01*
X141005196Y-90931227D01*
X141008796Y-90955496D01*
X141010000Y-90980000D01*
X141010000Y-95980000D01*
X141008796Y-96004504D01*
X141005196Y-96028773D01*
X140999235Y-96052571D01*
X140990970Y-96075671D01*
X140980480Y-96097849D01*
X140967867Y-96118893D01*
X140953253Y-96138598D01*
X140936777Y-96156777D01*
X140918598Y-96173253D01*
X140898893Y-96187867D01*
X140877849Y-96200480D01*
X140855671Y-96210970D01*
X140832571Y-96219235D01*
X140808773Y-96225196D01*
X140784504Y-96228796D01*
X140760000Y-96230000D01*
X140260000Y-96230000D01*
X140235496Y-96228796D01*
X140211227Y-96225196D01*
X140187429Y-96219235D01*
X140164329Y-96210970D01*
X140142151Y-96200480D01*
X140121107Y-96187867D01*
X140101402Y-96173253D01*
X140083223Y-96156777D01*
X140066747Y-96138598D01*
X140052133Y-96118893D01*
X140039520Y-96097849D01*
X140029030Y-96075671D01*
X140020765Y-96052571D01*
X140014804Y-96028773D01*
X140011204Y-96004504D01*
X140010000Y-95980000D01*
X140010000Y-90980000D01*
X140011204Y-90955496D01*
X140014804Y-90931227D01*
X140020765Y-90907429D01*
X140029030Y-90884329D01*
X140039520Y-90862151D01*
X140052133Y-90841107D01*
X140066747Y-90821402D01*
X140083223Y-90803223D01*
X140101402Y-90786747D01*
X140121107Y-90772133D01*
X140142151Y-90759520D01*
X140164329Y-90749030D01*
X140187429Y-90740765D01*
X140211227Y-90734804D01*
X140235496Y-90731204D01*
X140260000Y-90730000D01*
X140760000Y-90730000D01*
X140784504Y-90731204D01*
G37*
G04 #@! TD.AperFunction*
D11*
X135890000Y-77470000D03*
X142240000Y-78740000D03*
X151130000Y-80010000D03*
X148590000Y-91440000D03*
D12*
X144780000Y-74930000D03*
D11*
X143510000Y-76200000D03*
X144780000Y-78740000D03*
X149860000Y-91440000D03*
X143510000Y-88900000D03*
X135890000Y-81280000D03*
X143510000Y-78740000D03*
X142240000Y-87630000D03*
X137160000Y-91440000D03*
D13*
X148550000Y-91440000D02*
X148590000Y-91440000D01*
X146510000Y-93480000D02*
X148550000Y-91440000D01*
X144780000Y-77470000D02*
X144780000Y-78740000D01*
X143510000Y-76200000D02*
X144780000Y-77470000D01*
X144885010Y-90354990D02*
X148774990Y-90354990D01*
X144510000Y-90730000D02*
X144885010Y-90354990D01*
X144510000Y-93480000D02*
X144510000Y-90730000D01*
X148774990Y-90354990D02*
X149860000Y-91440000D01*
X143510000Y-88900000D02*
X144780000Y-90170000D01*
X144510000Y-90440000D02*
X144510000Y-93480000D01*
X144780000Y-90170000D02*
X144510000Y-90440000D01*
X135890000Y-81280000D02*
X135890000Y-80010000D01*
X142607180Y-77837180D02*
X143510000Y-78740000D01*
X138062820Y-77837180D02*
X142607180Y-77837180D01*
X135890000Y-80010000D02*
X138062820Y-77837180D01*
X142240000Y-93210000D02*
X142510000Y-93480000D01*
X142240000Y-87630000D02*
X142240000Y-93210000D01*
X139200000Y-93480000D02*
X137160000Y-91440000D01*
X140510000Y-93480000D02*
X139200000Y-93480000D01*
D14*
G36*
X150219668Y-74383551D02*
G01*
X150565634Y-74488004D01*
X150884724Y-74657667D01*
X151164781Y-74886076D01*
X151395141Y-75164534D01*
X151567027Y-75482430D01*
X151673893Y-75827658D01*
X151715000Y-76218753D01*
X151715001Y-83853647D01*
X151724913Y-83954283D01*
X151738919Y-84000454D01*
X151687351Y-84010711D01*
X151242721Y-84194883D01*
X150842564Y-84462259D01*
X150502259Y-84802564D01*
X150234883Y-85202721D01*
X150050711Y-85647351D01*
X149956821Y-86119368D01*
X149956821Y-86600632D01*
X150050711Y-87072649D01*
X150234883Y-87517279D01*
X150502259Y-87917436D01*
X150842564Y-88257741D01*
X151242721Y-88525117D01*
X151687351Y-88709289D01*
X151738918Y-88719546D01*
X151724912Y-88765718D01*
X151715000Y-88866354D01*
X151715001Y-96486485D01*
X151676449Y-96879667D01*
X151571996Y-97225635D01*
X151402333Y-97544724D01*
X151173924Y-97824781D01*
X150895466Y-98055141D01*
X150577570Y-98227027D01*
X150232340Y-98333894D01*
X149841238Y-98375000D01*
X137193505Y-98375000D01*
X136800333Y-98336449D01*
X136454365Y-98231996D01*
X136135276Y-98062333D01*
X135855219Y-97833924D01*
X135624859Y-97555466D01*
X135452973Y-97237570D01*
X135346106Y-96892340D01*
X135305000Y-96501238D01*
X135305000Y-91338061D01*
X136125000Y-91338061D01*
X136125000Y-91541939D01*
X136164774Y-91741898D01*
X136242795Y-91930256D01*
X136356063Y-92099774D01*
X136500226Y-92243937D01*
X136669744Y-92357205D01*
X136858102Y-92435226D01*
X137058061Y-92475000D01*
X137120199Y-92475000D01*
X138237126Y-93591928D01*
X137560000Y-93591928D01*
X137386746Y-93608992D01*
X137220150Y-93659528D01*
X137066614Y-93741595D01*
X136932038Y-93852038D01*
X136821595Y-93986614D01*
X136739528Y-94140150D01*
X136688992Y-94306746D01*
X136671928Y-94480000D01*
X136671928Y-96980000D01*
X136688992Y-97153254D01*
X136739528Y-97319850D01*
X136821595Y-97473386D01*
X136932038Y-97607962D01*
X137066614Y-97718405D01*
X137220150Y-97800472D01*
X137386746Y-97851008D01*
X137560000Y-97868072D01*
X138660000Y-97868072D01*
X138833254Y-97851008D01*
X138999850Y-97800472D01*
X139153386Y-97718405D01*
X139287962Y-97607962D01*
X139398405Y-97473386D01*
X139480472Y-97319850D01*
X139531008Y-97153254D01*
X139548072Y-96980000D01*
X139548072Y-96505649D01*
X139632038Y-96607962D01*
X139766614Y-96718405D01*
X139920150Y-96800472D01*
X140086746Y-96851008D01*
X140260000Y-96868072D01*
X140760000Y-96868072D01*
X140933254Y-96851008D01*
X141099850Y-96800472D01*
X141253386Y-96718405D01*
X141387962Y-96607962D01*
X141498405Y-96473386D01*
X141510000Y-96451693D01*
X141521595Y-96473386D01*
X141632038Y-96607962D01*
X141766614Y-96718405D01*
X141920150Y-96800472D01*
X142086746Y-96851008D01*
X142260000Y-96868072D01*
X142760000Y-96868072D01*
X142933254Y-96851008D01*
X143099850Y-96800472D01*
X143253386Y-96718405D01*
X143387962Y-96607962D01*
X143498405Y-96473386D01*
X143510000Y-96451693D01*
X143521595Y-96473386D01*
X143632038Y-96607962D01*
X143766614Y-96718405D01*
X143920150Y-96800472D01*
X144086746Y-96851008D01*
X144260000Y-96868072D01*
X144760000Y-96868072D01*
X144933254Y-96851008D01*
X145099850Y-96800472D01*
X145253386Y-96718405D01*
X145387962Y-96607962D01*
X145450969Y-96531187D01*
X145479463Y-96584494D01*
X145558815Y-96681185D01*
X145655506Y-96760537D01*
X145765820Y-96819502D01*
X145885518Y-96855812D01*
X146010000Y-96868072D01*
X146224250Y-96865000D01*
X146383000Y-96706250D01*
X146383000Y-93607000D01*
X146637000Y-93607000D01*
X146637000Y-96706250D01*
X146795750Y-96865000D01*
X147010000Y-96868072D01*
X147134482Y-96855812D01*
X147254180Y-96819502D01*
X147364494Y-96760537D01*
X147461185Y-96681185D01*
X147471928Y-96668095D01*
X147471928Y-96980000D01*
X147488992Y-97153254D01*
X147539528Y-97319850D01*
X147621595Y-97473386D01*
X147732038Y-97607962D01*
X147866614Y-97718405D01*
X148020150Y-97800472D01*
X148186746Y-97851008D01*
X148360000Y-97868072D01*
X149460000Y-97868072D01*
X149633254Y-97851008D01*
X149799850Y-97800472D01*
X149953386Y-97718405D01*
X150087962Y-97607962D01*
X150198405Y-97473386D01*
X150280472Y-97319850D01*
X150331008Y-97153254D01*
X150348072Y-96980000D01*
X150348072Y-94480000D01*
X150331008Y-94306746D01*
X150280472Y-94140150D01*
X150198405Y-93986614D01*
X150087962Y-93852038D01*
X149953386Y-93741595D01*
X149799850Y-93659528D01*
X149633254Y-93608992D01*
X149460000Y-93591928D01*
X148360000Y-93591928D01*
X148186746Y-93608992D01*
X148020150Y-93659528D01*
X147866614Y-93741595D01*
X147732038Y-93852038D01*
X147645239Y-93957803D01*
X147645000Y-93765750D01*
X147486250Y-93607000D01*
X146637000Y-93607000D01*
X146383000Y-93607000D01*
X146363000Y-93607000D01*
X146363000Y-93353000D01*
X146383000Y-93353000D01*
X146383000Y-93333000D01*
X146637000Y-93333000D01*
X146637000Y-93353000D01*
X147486250Y-93353000D01*
X147645000Y-93194250D01*
X147647592Y-91114990D01*
X148460189Y-91114990D01*
X148825000Y-91479802D01*
X148825000Y-91541939D01*
X148864774Y-91741898D01*
X148942795Y-91930256D01*
X149056063Y-92099774D01*
X149200226Y-92243937D01*
X149369744Y-92357205D01*
X149558102Y-92435226D01*
X149758061Y-92475000D01*
X149961939Y-92475000D01*
X150161898Y-92435226D01*
X150350256Y-92357205D01*
X150519774Y-92243937D01*
X150663937Y-92099774D01*
X150777205Y-91930256D01*
X150855226Y-91741898D01*
X150895000Y-91541939D01*
X150895000Y-91338061D01*
X150855226Y-91138102D01*
X150777205Y-90949744D01*
X150663937Y-90780226D01*
X150519774Y-90636063D01*
X150350256Y-90522795D01*
X150161898Y-90444774D01*
X149961939Y-90405000D01*
X149899802Y-90405000D01*
X149338794Y-89843992D01*
X149314991Y-89814989D01*
X149199266Y-89720016D01*
X149067237Y-89649444D01*
X148923976Y-89605987D01*
X148812323Y-89594990D01*
X148812312Y-89594990D01*
X148774990Y-89591314D01*
X148737668Y-89594990D01*
X145279792Y-89594990D01*
X144545000Y-88860199D01*
X144545000Y-88798061D01*
X144505226Y-88598102D01*
X144427205Y-88409744D01*
X144313937Y-88240226D01*
X144169774Y-88096063D01*
X144000256Y-87982795D01*
X143811898Y-87904774D01*
X143611939Y-87865000D01*
X143408061Y-87865000D01*
X143241961Y-87898039D01*
X143275000Y-87731939D01*
X143275000Y-87528061D01*
X143235226Y-87328102D01*
X143157205Y-87139744D01*
X143043937Y-86970226D01*
X142899774Y-86826063D01*
X142730256Y-86712795D01*
X142541898Y-86634774D01*
X142341939Y-86595000D01*
X142138061Y-86595000D01*
X141938102Y-86634774D01*
X141749744Y-86712795D01*
X141580226Y-86826063D01*
X141436063Y-86970226D01*
X141322795Y-87139744D01*
X141244774Y-87328102D01*
X141205000Y-87528061D01*
X141205000Y-87731939D01*
X141244774Y-87931898D01*
X141322795Y-88120256D01*
X141436063Y-88289774D01*
X141480000Y-88333711D01*
X141480001Y-90464188D01*
X141387962Y-90352038D01*
X141253386Y-90241595D01*
X141099850Y-90159528D01*
X140933254Y-90108992D01*
X140760000Y-90091928D01*
X140260000Y-90091928D01*
X140086746Y-90108992D01*
X139920150Y-90159528D01*
X139766614Y-90241595D01*
X139632038Y-90352038D01*
X139521595Y-90486614D01*
X139439528Y-90640150D01*
X139388992Y-90806746D01*
X139371928Y-90980000D01*
X139371928Y-92577126D01*
X138195000Y-91400199D01*
X138195000Y-91338061D01*
X138155226Y-91138102D01*
X138077205Y-90949744D01*
X137963937Y-90780226D01*
X137819774Y-90636063D01*
X137650256Y-90522795D01*
X137461898Y-90444774D01*
X137261939Y-90405000D01*
X137058061Y-90405000D01*
X136858102Y-90444774D01*
X136669744Y-90522795D01*
X136500226Y-90636063D01*
X136356063Y-90780226D01*
X136242795Y-90949744D01*
X136164774Y-91138102D01*
X136125000Y-91338061D01*
X135305000Y-91338061D01*
X135305000Y-88866353D01*
X135295088Y-88765717D01*
X135281082Y-88719546D01*
X135332649Y-88709289D01*
X135777279Y-88525117D01*
X136177436Y-88257741D01*
X136517741Y-87917436D01*
X136785117Y-87517279D01*
X136969289Y-87072649D01*
X137063179Y-86600632D01*
X137063179Y-86119368D01*
X136969289Y-85647351D01*
X136785117Y-85202721D01*
X136517741Y-84802564D01*
X136177436Y-84462259D01*
X135777279Y-84194883D01*
X135332649Y-84010711D01*
X135281082Y-84000454D01*
X135295088Y-83954283D01*
X135305000Y-83853647D01*
X135305000Y-82133899D01*
X135399744Y-82197205D01*
X135588102Y-82275226D01*
X135788061Y-82315000D01*
X135991939Y-82315000D01*
X136191898Y-82275226D01*
X136380256Y-82197205D01*
X136549774Y-82083937D01*
X136693937Y-81939774D01*
X136807205Y-81770256D01*
X136885226Y-81581898D01*
X136925000Y-81381939D01*
X136925000Y-81178061D01*
X136885226Y-80978102D01*
X136807205Y-80789744D01*
X136693937Y-80620226D01*
X136650000Y-80576289D01*
X136650000Y-80324801D01*
X138377622Y-78597180D01*
X142292379Y-78597180D01*
X142475000Y-78779801D01*
X142475000Y-78841939D01*
X142514774Y-79041898D01*
X142592795Y-79230256D01*
X142706063Y-79399774D01*
X142850226Y-79543937D01*
X143019744Y-79657205D01*
X143208102Y-79735226D01*
X143408061Y-79775000D01*
X143611939Y-79775000D01*
X143811898Y-79735226D01*
X144000256Y-79657205D01*
X144145000Y-79560490D01*
X144289744Y-79657205D01*
X144478102Y-79735226D01*
X144678061Y-79775000D01*
X144881939Y-79775000D01*
X145081898Y-79735226D01*
X145270256Y-79657205D01*
X145439774Y-79543937D01*
X145583937Y-79399774D01*
X145697205Y-79230256D01*
X145775226Y-79041898D01*
X145815000Y-78841939D01*
X145815000Y-78638061D01*
X145775226Y-78438102D01*
X145697205Y-78249744D01*
X145583937Y-78080226D01*
X145540000Y-78036289D01*
X145540000Y-77507322D01*
X145543676Y-77469999D01*
X145540000Y-77432676D01*
X145540000Y-77432667D01*
X145529003Y-77321014D01*
X145485546Y-77177753D01*
X145414974Y-77045724D01*
X145320001Y-76929999D01*
X145291004Y-76906202D01*
X144545000Y-76160199D01*
X144545000Y-76098061D01*
X144505226Y-75898102D01*
X144427205Y-75709744D01*
X144313937Y-75540226D01*
X144169774Y-75396063D01*
X144000256Y-75282795D01*
X143811898Y-75204774D01*
X143611939Y-75165000D01*
X143408061Y-75165000D01*
X143208102Y-75204774D01*
X143019744Y-75282795D01*
X142850226Y-75396063D01*
X142706063Y-75540226D01*
X142592795Y-75709744D01*
X142514774Y-75898102D01*
X142475000Y-76098061D01*
X142475000Y-76301939D01*
X142514774Y-76501898D01*
X142592795Y-76690256D01*
X142706063Y-76859774D01*
X142850226Y-77003937D01*
X143019744Y-77117205D01*
X143208102Y-77195226D01*
X143408061Y-77235000D01*
X143470199Y-77235000D01*
X144020000Y-77784802D01*
X144020000Y-77835988D01*
X144000256Y-77822795D01*
X143811898Y-77744774D01*
X143611939Y-77705000D01*
X143549801Y-77705000D01*
X143170983Y-77326182D01*
X143147181Y-77297179D01*
X143031456Y-77202206D01*
X142899427Y-77131634D01*
X142756166Y-77088177D01*
X142644513Y-77077180D01*
X142644502Y-77077180D01*
X142607180Y-77073504D01*
X142569858Y-77077180D01*
X138100153Y-77077180D01*
X138062820Y-77073503D01*
X138025487Y-77077180D01*
X137913834Y-77088177D01*
X137770573Y-77131634D01*
X137638544Y-77202206D01*
X137522819Y-77297179D01*
X137499021Y-77326177D01*
X135378998Y-79446201D01*
X135350000Y-79469999D01*
X135326202Y-79498997D01*
X135326201Y-79498998D01*
X135305000Y-79524831D01*
X135305000Y-76233504D01*
X135343551Y-75840332D01*
X135448004Y-75494366D01*
X135617667Y-75175276D01*
X135846076Y-74895219D01*
X136124534Y-74664859D01*
X136442430Y-74492973D01*
X136787658Y-74386107D01*
X137178753Y-74345000D01*
X149826496Y-74345000D01*
X150219668Y-74383551D01*
G37*
X150219668Y-74383551D02*
X150565634Y-74488004D01*
X150884724Y-74657667D01*
X151164781Y-74886076D01*
X151395141Y-75164534D01*
X151567027Y-75482430D01*
X151673893Y-75827658D01*
X151715000Y-76218753D01*
X151715001Y-83853647D01*
X151724913Y-83954283D01*
X151738919Y-84000454D01*
X151687351Y-84010711D01*
X151242721Y-84194883D01*
X150842564Y-84462259D01*
X150502259Y-84802564D01*
X150234883Y-85202721D01*
X150050711Y-85647351D01*
X149956821Y-86119368D01*
X149956821Y-86600632D01*
X150050711Y-87072649D01*
X150234883Y-87517279D01*
X150502259Y-87917436D01*
X150842564Y-88257741D01*
X151242721Y-88525117D01*
X151687351Y-88709289D01*
X151738918Y-88719546D01*
X151724912Y-88765718D01*
X151715000Y-88866354D01*
X151715001Y-96486485D01*
X151676449Y-96879667D01*
X151571996Y-97225635D01*
X151402333Y-97544724D01*
X151173924Y-97824781D01*
X150895466Y-98055141D01*
X150577570Y-98227027D01*
X150232340Y-98333894D01*
X149841238Y-98375000D01*
X137193505Y-98375000D01*
X136800333Y-98336449D01*
X136454365Y-98231996D01*
X136135276Y-98062333D01*
X135855219Y-97833924D01*
X135624859Y-97555466D01*
X135452973Y-97237570D01*
X135346106Y-96892340D01*
X135305000Y-96501238D01*
X135305000Y-91338061D01*
X136125000Y-91338061D01*
X136125000Y-91541939D01*
X136164774Y-91741898D01*
X136242795Y-91930256D01*
X136356063Y-92099774D01*
X136500226Y-92243937D01*
X136669744Y-92357205D01*
X136858102Y-92435226D01*
X137058061Y-92475000D01*
X137120199Y-92475000D01*
X138237126Y-93591928D01*
X137560000Y-93591928D01*
X137386746Y-93608992D01*
X137220150Y-93659528D01*
X137066614Y-93741595D01*
X136932038Y-93852038D01*
X136821595Y-93986614D01*
X136739528Y-94140150D01*
X136688992Y-94306746D01*
X136671928Y-94480000D01*
X136671928Y-96980000D01*
X136688992Y-97153254D01*
X136739528Y-97319850D01*
X136821595Y-97473386D01*
X136932038Y-97607962D01*
X137066614Y-97718405D01*
X137220150Y-97800472D01*
X137386746Y-97851008D01*
X137560000Y-97868072D01*
X138660000Y-97868072D01*
X138833254Y-97851008D01*
X138999850Y-97800472D01*
X139153386Y-97718405D01*
X139287962Y-97607962D01*
X139398405Y-97473386D01*
X139480472Y-97319850D01*
X139531008Y-97153254D01*
X139548072Y-96980000D01*
X139548072Y-96505649D01*
X139632038Y-96607962D01*
X139766614Y-96718405D01*
X139920150Y-96800472D01*
X140086746Y-96851008D01*
X140260000Y-96868072D01*
X140760000Y-96868072D01*
X140933254Y-96851008D01*
X141099850Y-96800472D01*
X141253386Y-96718405D01*
X141387962Y-96607962D01*
X141498405Y-96473386D01*
X141510000Y-96451693D01*
X141521595Y-96473386D01*
X141632038Y-96607962D01*
X141766614Y-96718405D01*
X141920150Y-96800472D01*
X142086746Y-96851008D01*
X142260000Y-96868072D01*
X142760000Y-96868072D01*
X142933254Y-96851008D01*
X143099850Y-96800472D01*
X143253386Y-96718405D01*
X143387962Y-96607962D01*
X143498405Y-96473386D01*
X143510000Y-96451693D01*
X143521595Y-96473386D01*
X143632038Y-96607962D01*
X143766614Y-96718405D01*
X143920150Y-96800472D01*
X144086746Y-96851008D01*
X144260000Y-96868072D01*
X144760000Y-96868072D01*
X144933254Y-96851008D01*
X145099850Y-96800472D01*
X145253386Y-96718405D01*
X145387962Y-96607962D01*
X145450969Y-96531187D01*
X145479463Y-96584494D01*
X145558815Y-96681185D01*
X145655506Y-96760537D01*
X145765820Y-96819502D01*
X145885518Y-96855812D01*
X146010000Y-96868072D01*
X146224250Y-96865000D01*
X146383000Y-96706250D01*
X146383000Y-93607000D01*
X146637000Y-93607000D01*
X146637000Y-96706250D01*
X146795750Y-96865000D01*
X147010000Y-96868072D01*
X147134482Y-96855812D01*
X147254180Y-96819502D01*
X147364494Y-96760537D01*
X147461185Y-96681185D01*
X147471928Y-96668095D01*
X147471928Y-96980000D01*
X147488992Y-97153254D01*
X147539528Y-97319850D01*
X147621595Y-97473386D01*
X147732038Y-97607962D01*
X147866614Y-97718405D01*
X148020150Y-97800472D01*
X148186746Y-97851008D01*
X148360000Y-97868072D01*
X149460000Y-97868072D01*
X149633254Y-97851008D01*
X149799850Y-97800472D01*
X149953386Y-97718405D01*
X150087962Y-97607962D01*
X150198405Y-97473386D01*
X150280472Y-97319850D01*
X150331008Y-97153254D01*
X150348072Y-96980000D01*
X150348072Y-94480000D01*
X150331008Y-94306746D01*
X150280472Y-94140150D01*
X150198405Y-93986614D01*
X150087962Y-93852038D01*
X149953386Y-93741595D01*
X149799850Y-93659528D01*
X149633254Y-93608992D01*
X149460000Y-93591928D01*
X148360000Y-93591928D01*
X148186746Y-93608992D01*
X148020150Y-93659528D01*
X147866614Y-93741595D01*
X147732038Y-93852038D01*
X147645239Y-93957803D01*
X147645000Y-93765750D01*
X147486250Y-93607000D01*
X146637000Y-93607000D01*
X146383000Y-93607000D01*
X146363000Y-93607000D01*
X146363000Y-93353000D01*
X146383000Y-93353000D01*
X146383000Y-93333000D01*
X146637000Y-93333000D01*
X146637000Y-93353000D01*
X147486250Y-93353000D01*
X147645000Y-93194250D01*
X147647592Y-91114990D01*
X148460189Y-91114990D01*
X148825000Y-91479802D01*
X148825000Y-91541939D01*
X148864774Y-91741898D01*
X148942795Y-91930256D01*
X149056063Y-92099774D01*
X149200226Y-92243937D01*
X149369744Y-92357205D01*
X149558102Y-92435226D01*
X149758061Y-92475000D01*
X149961939Y-92475000D01*
X150161898Y-92435226D01*
X150350256Y-92357205D01*
X150519774Y-92243937D01*
X150663937Y-92099774D01*
X150777205Y-91930256D01*
X150855226Y-91741898D01*
X150895000Y-91541939D01*
X150895000Y-91338061D01*
X150855226Y-91138102D01*
X150777205Y-90949744D01*
X150663937Y-90780226D01*
X150519774Y-90636063D01*
X150350256Y-90522795D01*
X150161898Y-90444774D01*
X149961939Y-90405000D01*
X149899802Y-90405000D01*
X149338794Y-89843992D01*
X149314991Y-89814989D01*
X149199266Y-89720016D01*
X149067237Y-89649444D01*
X148923976Y-89605987D01*
X148812323Y-89594990D01*
X148812312Y-89594990D01*
X148774990Y-89591314D01*
X148737668Y-89594990D01*
X145279792Y-89594990D01*
X144545000Y-88860199D01*
X144545000Y-88798061D01*
X144505226Y-88598102D01*
X144427205Y-88409744D01*
X144313937Y-88240226D01*
X144169774Y-88096063D01*
X144000256Y-87982795D01*
X143811898Y-87904774D01*
X143611939Y-87865000D01*
X143408061Y-87865000D01*
X143241961Y-87898039D01*
X143275000Y-87731939D01*
X143275000Y-87528061D01*
X143235226Y-87328102D01*
X143157205Y-87139744D01*
X143043937Y-86970226D01*
X142899774Y-86826063D01*
X142730256Y-86712795D01*
X142541898Y-86634774D01*
X142341939Y-86595000D01*
X142138061Y-86595000D01*
X141938102Y-86634774D01*
X141749744Y-86712795D01*
X141580226Y-86826063D01*
X141436063Y-86970226D01*
X141322795Y-87139744D01*
X141244774Y-87328102D01*
X141205000Y-87528061D01*
X141205000Y-87731939D01*
X141244774Y-87931898D01*
X141322795Y-88120256D01*
X141436063Y-88289774D01*
X141480000Y-88333711D01*
X141480001Y-90464188D01*
X141387962Y-90352038D01*
X141253386Y-90241595D01*
X141099850Y-90159528D01*
X140933254Y-90108992D01*
X140760000Y-90091928D01*
X140260000Y-90091928D01*
X140086746Y-90108992D01*
X139920150Y-90159528D01*
X139766614Y-90241595D01*
X139632038Y-90352038D01*
X139521595Y-90486614D01*
X139439528Y-90640150D01*
X139388992Y-90806746D01*
X139371928Y-90980000D01*
X139371928Y-92577126D01*
X138195000Y-91400199D01*
X138195000Y-91338061D01*
X138155226Y-91138102D01*
X138077205Y-90949744D01*
X137963937Y-90780226D01*
X137819774Y-90636063D01*
X137650256Y-90522795D01*
X137461898Y-90444774D01*
X137261939Y-90405000D01*
X137058061Y-90405000D01*
X136858102Y-90444774D01*
X136669744Y-90522795D01*
X136500226Y-90636063D01*
X136356063Y-90780226D01*
X136242795Y-90949744D01*
X136164774Y-91138102D01*
X136125000Y-91338061D01*
X135305000Y-91338061D01*
X135305000Y-88866353D01*
X135295088Y-88765717D01*
X135281082Y-88719546D01*
X135332649Y-88709289D01*
X135777279Y-88525117D01*
X136177436Y-88257741D01*
X136517741Y-87917436D01*
X136785117Y-87517279D01*
X136969289Y-87072649D01*
X137063179Y-86600632D01*
X137063179Y-86119368D01*
X136969289Y-85647351D01*
X136785117Y-85202721D01*
X136517741Y-84802564D01*
X136177436Y-84462259D01*
X135777279Y-84194883D01*
X135332649Y-84010711D01*
X135281082Y-84000454D01*
X135295088Y-83954283D01*
X135305000Y-83853647D01*
X135305000Y-82133899D01*
X135399744Y-82197205D01*
X135588102Y-82275226D01*
X135788061Y-82315000D01*
X135991939Y-82315000D01*
X136191898Y-82275226D01*
X136380256Y-82197205D01*
X136549774Y-82083937D01*
X136693937Y-81939774D01*
X136807205Y-81770256D01*
X136885226Y-81581898D01*
X136925000Y-81381939D01*
X136925000Y-81178061D01*
X136885226Y-80978102D01*
X136807205Y-80789744D01*
X136693937Y-80620226D01*
X136650000Y-80576289D01*
X136650000Y-80324801D01*
X138377622Y-78597180D01*
X142292379Y-78597180D01*
X142475000Y-78779801D01*
X142475000Y-78841939D01*
X142514774Y-79041898D01*
X142592795Y-79230256D01*
X142706063Y-79399774D01*
X142850226Y-79543937D01*
X143019744Y-79657205D01*
X143208102Y-79735226D01*
X143408061Y-79775000D01*
X143611939Y-79775000D01*
X143811898Y-79735226D01*
X144000256Y-79657205D01*
X144145000Y-79560490D01*
X144289744Y-79657205D01*
X144478102Y-79735226D01*
X144678061Y-79775000D01*
X144881939Y-79775000D01*
X145081898Y-79735226D01*
X145270256Y-79657205D01*
X145439774Y-79543937D01*
X145583937Y-79399774D01*
X145697205Y-79230256D01*
X145775226Y-79041898D01*
X145815000Y-78841939D01*
X145815000Y-78638061D01*
X145775226Y-78438102D01*
X145697205Y-78249744D01*
X145583937Y-78080226D01*
X145540000Y-78036289D01*
X145540000Y-77507322D01*
X145543676Y-77469999D01*
X145540000Y-77432676D01*
X145540000Y-77432667D01*
X145529003Y-77321014D01*
X145485546Y-77177753D01*
X145414974Y-77045724D01*
X145320001Y-76929999D01*
X145291004Y-76906202D01*
X144545000Y-76160199D01*
X144545000Y-76098061D01*
X144505226Y-75898102D01*
X144427205Y-75709744D01*
X144313937Y-75540226D01*
X144169774Y-75396063D01*
X144000256Y-75282795D01*
X143811898Y-75204774D01*
X143611939Y-75165000D01*
X143408061Y-75165000D01*
X143208102Y-75204774D01*
X143019744Y-75282795D01*
X142850226Y-75396063D01*
X142706063Y-75540226D01*
X142592795Y-75709744D01*
X142514774Y-75898102D01*
X142475000Y-76098061D01*
X142475000Y-76301939D01*
X142514774Y-76501898D01*
X142592795Y-76690256D01*
X142706063Y-76859774D01*
X142850226Y-77003937D01*
X143019744Y-77117205D01*
X143208102Y-77195226D01*
X143408061Y-77235000D01*
X143470199Y-77235000D01*
X144020000Y-77784802D01*
X144020000Y-77835988D01*
X144000256Y-77822795D01*
X143811898Y-77744774D01*
X143611939Y-77705000D01*
X143549801Y-77705000D01*
X143170983Y-77326182D01*
X143147181Y-77297179D01*
X143031456Y-77202206D01*
X142899427Y-77131634D01*
X142756166Y-77088177D01*
X142644513Y-77077180D01*
X142644502Y-77077180D01*
X142607180Y-77073504D01*
X142569858Y-77077180D01*
X138100153Y-77077180D01*
X138062820Y-77073503D01*
X138025487Y-77077180D01*
X137913834Y-77088177D01*
X137770573Y-77131634D01*
X137638544Y-77202206D01*
X137522819Y-77297179D01*
X137499021Y-77326177D01*
X135378998Y-79446201D01*
X135350000Y-79469999D01*
X135326202Y-79498997D01*
X135326201Y-79498998D01*
X135305000Y-79524831D01*
X135305000Y-76233504D01*
X135343551Y-75840332D01*
X135448004Y-75494366D01*
X135617667Y-75175276D01*
X135846076Y-74895219D01*
X136124534Y-74664859D01*
X136442430Y-74492973D01*
X136787658Y-74386107D01*
X137178753Y-74345000D01*
X149826496Y-74345000D01*
X150219668Y-74383551D01*
M02*
