G04 #@! TF.GenerationSoftware,KiCad,Pcbnew,5.1.5+dfsg1-2build2*
G04 #@! TF.CreationDate,2020-12-04T16:47:08+01:00*
G04 #@! TF.ProjectId,Lightdome_SensorPCB,4c696768-7464-46f6-9d65-5f53656e736f,1*
G04 #@! TF.SameCoordinates,Original*
G04 #@! TF.FileFunction,Legend,Top*
G04 #@! TF.FilePolarity,Positive*
%FSLAX46Y46*%
G04 Gerber Fmt 4.6, Leading zero omitted, Abs format (unit mm)*
G04 Created by KiCad (PCBNEW 5.1.5+dfsg1-2build2) date 2020-12-04 16:47:08*
%MOMM*%
%LPD*%
G04 APERTURE LIST*
%ADD10C,0.200000*%
%ADD11C,0.127000*%
%ADD12C,0.100000*%
%ADD13C,0.120000*%
%ADD14C,0.015000*%
%ADD15C,0.150000*%
%ADD16R,1.000000X0.400000*%
%ADD17R,1.970000X0.600000*%
%ADD18C,0.152400*%
%ADD19R,1.600000X0.700000*%
G04 APERTURE END LIST*
D10*
X136271904Y-92941904D02*
X136176666Y-92903809D01*
X136129047Y-92827619D01*
X136129047Y-92141904D01*
X136652857Y-92941904D02*
X136652857Y-92408571D01*
X136652857Y-92141904D02*
X136605238Y-92180000D01*
X136652857Y-92218095D01*
X136700476Y-92180000D01*
X136652857Y-92141904D01*
X136652857Y-92218095D01*
X137557619Y-92408571D02*
X137557619Y-93056190D01*
X137510000Y-93132380D01*
X137462380Y-93170476D01*
X137367142Y-93208571D01*
X137224285Y-93208571D01*
X137129047Y-93170476D01*
X137557619Y-92903809D02*
X137462380Y-92941904D01*
X137271904Y-92941904D01*
X137176666Y-92903809D01*
X137129047Y-92865714D01*
X137081428Y-92789523D01*
X137081428Y-92560952D01*
X137129047Y-92484761D01*
X137176666Y-92446666D01*
X137271904Y-92408571D01*
X137462380Y-92408571D01*
X137557619Y-92446666D01*
X138033809Y-92941904D02*
X138033809Y-92141904D01*
X138462380Y-92941904D02*
X138462380Y-92522857D01*
X138414761Y-92446666D01*
X138319523Y-92408571D01*
X138176666Y-92408571D01*
X138081428Y-92446666D01*
X138033809Y-92484761D01*
X138795714Y-92408571D02*
X139176666Y-92408571D01*
X138938571Y-92141904D02*
X138938571Y-92827619D01*
X138986190Y-92903809D01*
X139081428Y-92941904D01*
X139176666Y-92941904D01*
X140224285Y-92903809D02*
X140319523Y-92941904D01*
X140510000Y-92941904D01*
X140605238Y-92903809D01*
X140652857Y-92827619D01*
X140652857Y-92789523D01*
X140605238Y-92713333D01*
X140510000Y-92675238D01*
X140367142Y-92675238D01*
X140271904Y-92637142D01*
X140224285Y-92560952D01*
X140224285Y-92522857D01*
X140271904Y-92446666D01*
X140367142Y-92408571D01*
X140510000Y-92408571D01*
X140605238Y-92446666D01*
X141462380Y-92903809D02*
X141367142Y-92941904D01*
X141176666Y-92941904D01*
X141081428Y-92903809D01*
X141033809Y-92827619D01*
X141033809Y-92522857D01*
X141081428Y-92446666D01*
X141176666Y-92408571D01*
X141367142Y-92408571D01*
X141462380Y-92446666D01*
X141510000Y-92522857D01*
X141510000Y-92599047D01*
X141033809Y-92675238D01*
X141938571Y-92408571D02*
X141938571Y-92941904D01*
X141938571Y-92484761D02*
X141986190Y-92446666D01*
X142081428Y-92408571D01*
X142224285Y-92408571D01*
X142319523Y-92446666D01*
X142367142Y-92522857D01*
X142367142Y-92941904D01*
X142795714Y-92903809D02*
X142890952Y-92941904D01*
X143081428Y-92941904D01*
X143176666Y-92903809D01*
X143224285Y-92827619D01*
X143224285Y-92789523D01*
X143176666Y-92713333D01*
X143081428Y-92675238D01*
X142938571Y-92675238D01*
X142843333Y-92637142D01*
X142795714Y-92560952D01*
X142795714Y-92522857D01*
X142843333Y-92446666D01*
X142938571Y-92408571D01*
X143081428Y-92408571D01*
X143176666Y-92446666D01*
X143795714Y-92941904D02*
X143700476Y-92903809D01*
X143652857Y-92865714D01*
X143605238Y-92789523D01*
X143605238Y-92560952D01*
X143652857Y-92484761D01*
X143700476Y-92446666D01*
X143795714Y-92408571D01*
X143938571Y-92408571D01*
X144033809Y-92446666D01*
X144081428Y-92484761D01*
X144129047Y-92560952D01*
X144129047Y-92789523D01*
X144081428Y-92865714D01*
X144033809Y-92903809D01*
X143938571Y-92941904D01*
X143795714Y-92941904D01*
X144557619Y-92941904D02*
X144557619Y-92408571D01*
X144557619Y-92560952D02*
X144605238Y-92484761D01*
X144652857Y-92446666D01*
X144748095Y-92408571D01*
X144843333Y-92408571D01*
X145938571Y-92941904D02*
X145938571Y-92408571D01*
X145938571Y-92484761D02*
X145986190Y-92446666D01*
X146081428Y-92408571D01*
X146224285Y-92408571D01*
X146319523Y-92446666D01*
X146367142Y-92522857D01*
X146367142Y-92941904D01*
X146367142Y-92522857D02*
X146414761Y-92446666D01*
X146510000Y-92408571D01*
X146652857Y-92408571D01*
X146748095Y-92446666D01*
X146795714Y-92522857D01*
X146795714Y-92941904D01*
X147414761Y-92941904D02*
X147319523Y-92903809D01*
X147271904Y-92865714D01*
X147224285Y-92789523D01*
X147224285Y-92560952D01*
X147271904Y-92484761D01*
X147319523Y-92446666D01*
X147414761Y-92408571D01*
X147557619Y-92408571D01*
X147652857Y-92446666D01*
X147700476Y-92484761D01*
X147748095Y-92560952D01*
X147748095Y-92789523D01*
X147700476Y-92865714D01*
X147652857Y-92903809D01*
X147557619Y-92941904D01*
X147414761Y-92941904D01*
X148605238Y-92941904D02*
X148605238Y-92141904D01*
X148605238Y-92903809D02*
X148510000Y-92941904D01*
X148319523Y-92941904D01*
X148224285Y-92903809D01*
X148176666Y-92865714D01*
X148129047Y-92789523D01*
X148129047Y-92560952D01*
X148176666Y-92484761D01*
X148224285Y-92446666D01*
X148319523Y-92408571D01*
X148510000Y-92408571D01*
X148605238Y-92446666D01*
X149510000Y-92408571D02*
X149510000Y-92941904D01*
X149081428Y-92408571D02*
X149081428Y-92827619D01*
X149129047Y-92903809D01*
X149224285Y-92941904D01*
X149367142Y-92941904D01*
X149462380Y-92903809D01*
X149510000Y-92865714D01*
X150129047Y-92941904D02*
X150033809Y-92903809D01*
X149986190Y-92827619D01*
X149986190Y-92141904D01*
X150890952Y-92903809D02*
X150795714Y-92941904D01*
X150605238Y-92941904D01*
X150510000Y-92903809D01*
X150462380Y-92827619D01*
X150462380Y-92522857D01*
X150510000Y-92446666D01*
X150605238Y-92408571D01*
X150795714Y-92408571D01*
X150890952Y-92446666D01*
X150938571Y-92522857D01*
X150938571Y-92599047D01*
X150462380Y-92675238D01*
X138248095Y-94941904D02*
X138248095Y-95589523D01*
X138295714Y-95665714D01*
X138343333Y-95703809D01*
X138438571Y-95741904D01*
X138629047Y-95741904D01*
X138724285Y-95703809D01*
X138771904Y-95665714D01*
X138819523Y-95589523D01*
X138819523Y-94941904D01*
X139152857Y-94941904D02*
X139486190Y-95741904D01*
X139819523Y-94941904D01*
X140914761Y-95437142D02*
X141676666Y-95437142D01*
X141295714Y-95741904D02*
X141295714Y-95132380D01*
X142914761Y-95741904D02*
X142914761Y-95208571D01*
X142914761Y-94941904D02*
X142867142Y-94980000D01*
X142914761Y-95018095D01*
X142962380Y-94980000D01*
X142914761Y-94941904D01*
X142914761Y-95018095D01*
X143390952Y-95208571D02*
X143390952Y-95741904D01*
X143390952Y-95284761D02*
X143438571Y-95246666D01*
X143533809Y-95208571D01*
X143676666Y-95208571D01*
X143771904Y-95246666D01*
X143819523Y-95322857D01*
X143819523Y-95741904D01*
X144152857Y-95208571D02*
X144533809Y-95208571D01*
X144295714Y-94941904D02*
X144295714Y-95627619D01*
X144343333Y-95703809D01*
X144438571Y-95741904D01*
X144533809Y-95741904D01*
X145248095Y-95703809D02*
X145152857Y-95741904D01*
X144962380Y-95741904D01*
X144867142Y-95703809D01*
X144819523Y-95627619D01*
X144819523Y-95322857D01*
X144867142Y-95246666D01*
X144962380Y-95208571D01*
X145152857Y-95208571D01*
X145248095Y-95246666D01*
X145295714Y-95322857D01*
X145295714Y-95399047D01*
X144819523Y-95475238D01*
X145724285Y-95208571D02*
X145724285Y-95741904D01*
X145724285Y-95284761D02*
X145771904Y-95246666D01*
X145867142Y-95208571D01*
X146010000Y-95208571D01*
X146105238Y-95246666D01*
X146152857Y-95322857D01*
X146152857Y-95741904D01*
X146581428Y-95703809D02*
X146676666Y-95741904D01*
X146867142Y-95741904D01*
X146962380Y-95703809D01*
X147010000Y-95627619D01*
X147010000Y-95589523D01*
X146962380Y-95513333D01*
X146867142Y-95475238D01*
X146724285Y-95475238D01*
X146629047Y-95437142D01*
X146581428Y-95360952D01*
X146581428Y-95322857D01*
X146629047Y-95246666D01*
X146724285Y-95208571D01*
X146867142Y-95208571D01*
X146962380Y-95246666D01*
X147438571Y-95741904D02*
X147438571Y-95208571D01*
X147438571Y-94941904D02*
X147390952Y-94980000D01*
X147438571Y-95018095D01*
X147486190Y-94980000D01*
X147438571Y-94941904D01*
X147438571Y-95018095D01*
X147771904Y-95208571D02*
X148152857Y-95208571D01*
X147914761Y-94941904D02*
X147914761Y-95627619D01*
X147962380Y-95703809D01*
X148057619Y-95741904D01*
X148152857Y-95741904D01*
X148390952Y-95208571D02*
X148629047Y-95741904D01*
X148867142Y-95208571D02*
X148629047Y-95741904D01*
X148533809Y-95932380D01*
X148486190Y-95970476D01*
X148390952Y-96008571D01*
D11*
X138525000Y-78370000D02*
X140875000Y-78370000D01*
X138525000Y-76570000D02*
X140875000Y-76570000D01*
D12*
X137880000Y-76450000D02*
G75*
G03X137880000Y-76450000I-50000J0D01*
G01*
D11*
X142920000Y-80025000D02*
X139020000Y-80025000D01*
X142920000Y-85075000D02*
X139020000Y-85075000D01*
D10*
X145110000Y-84855000D02*
G75*
G03X145110000Y-84855000I-100000J0D01*
G01*
D13*
X147096267Y-74420000D02*
X146753733Y-74420000D01*
X147096267Y-75440000D02*
X146753733Y-75440000D01*
X139871267Y-74420000D02*
X139528733Y-74420000D01*
X139871267Y-75440000D02*
X139528733Y-75440000D01*
X139032064Y-87990000D02*
X137827936Y-87990000D01*
X139032064Y-89810000D02*
X137827936Y-89810000D01*
X149192064Y-87990000D02*
X147987936Y-87990000D01*
X149192064Y-89810000D02*
X147987936Y-89810000D01*
D11*
X146640000Y-83410000D02*
X146640000Y-82710000D01*
X146640000Y-76610000D02*
X146640000Y-77310000D01*
X149640000Y-83410000D02*
X146640000Y-83410000D01*
X149640000Y-76610000D02*
X149640000Y-83410000D01*
X146640000Y-76610000D02*
X149640000Y-76610000D01*
D10*
X145565000Y-78028000D02*
G75*
G03X145565000Y-78028000I-100000J0D01*
G01*
D14*
X139158672Y-75469731D02*
X139158672Y-75955614D01*
X139187254Y-76012777D01*
X139215835Y-76041358D01*
X139272998Y-76069940D01*
X139387323Y-76069940D01*
X139444486Y-76041358D01*
X139473068Y-76012777D01*
X139501649Y-75955614D01*
X139501649Y-75469731D01*
X140101858Y-76069940D02*
X139758881Y-76069940D01*
X139930370Y-76069940D02*
X139930370Y-75469731D01*
X139873207Y-75555475D01*
X139816044Y-75612638D01*
X139758881Y-75641219D01*
X140593095Y-85539380D02*
X140593095Y-86348904D01*
X140640714Y-86444142D01*
X140688333Y-86491761D01*
X140783571Y-86539380D01*
X140974047Y-86539380D01*
X141069285Y-86491761D01*
X141116904Y-86444142D01*
X141164523Y-86348904D01*
X141164523Y-85539380D01*
X141545476Y-85539380D02*
X142164523Y-85539380D01*
X141831190Y-85920333D01*
X141974047Y-85920333D01*
X142069285Y-85967952D01*
X142116904Y-86015571D01*
X142164523Y-86110809D01*
X142164523Y-86348904D01*
X142116904Y-86444142D01*
X142069285Y-86491761D01*
X141974047Y-86539380D01*
X141688333Y-86539380D01*
X141593095Y-86491761D01*
X141545476Y-86444142D01*
D15*
X146758333Y-76717142D02*
X146710714Y-76764761D01*
X146567857Y-76812380D01*
X146472619Y-76812380D01*
X146329761Y-76764761D01*
X146234523Y-76669523D01*
X146186904Y-76574285D01*
X146139285Y-76383809D01*
X146139285Y-76240952D01*
X146186904Y-76050476D01*
X146234523Y-75955238D01*
X146329761Y-75860000D01*
X146472619Y-75812380D01*
X146567857Y-75812380D01*
X146710714Y-75860000D01*
X146758333Y-75907619D01*
X147710714Y-76812380D02*
X147139285Y-76812380D01*
X147425000Y-76812380D02*
X147425000Y-75812380D01*
X147329761Y-75955238D01*
X147234523Y-76050476D01*
X147139285Y-76098095D01*
X139533333Y-76812380D02*
X139200000Y-76336190D01*
X138961904Y-76812380D02*
X138961904Y-75812380D01*
X139342857Y-75812380D01*
X139438095Y-75860000D01*
X139485714Y-75907619D01*
X139533333Y-76002857D01*
X139533333Y-76145714D01*
X139485714Y-76240952D01*
X139438095Y-76288571D01*
X139342857Y-76336190D01*
X138961904Y-76336190D01*
X139866666Y-75812380D02*
X140485714Y-75812380D01*
X140152380Y-76193333D01*
X140295238Y-76193333D01*
X140390476Y-76240952D01*
X140438095Y-76288571D01*
X140485714Y-76383809D01*
X140485714Y-76621904D01*
X140438095Y-76717142D01*
X140390476Y-76764761D01*
X140295238Y-76812380D01*
X140009523Y-76812380D01*
X139914285Y-76764761D01*
X139866666Y-76717142D01*
X138263333Y-91172380D02*
X137930000Y-90696190D01*
X137691904Y-91172380D02*
X137691904Y-90172380D01*
X138072857Y-90172380D01*
X138168095Y-90220000D01*
X138215714Y-90267619D01*
X138263333Y-90362857D01*
X138263333Y-90505714D01*
X138215714Y-90600952D01*
X138168095Y-90648571D01*
X138072857Y-90696190D01*
X137691904Y-90696190D01*
X138644285Y-90267619D02*
X138691904Y-90220000D01*
X138787142Y-90172380D01*
X139025238Y-90172380D01*
X139120476Y-90220000D01*
X139168095Y-90267619D01*
X139215714Y-90362857D01*
X139215714Y-90458095D01*
X139168095Y-90600952D01*
X138596666Y-91172380D01*
X139215714Y-91172380D01*
X148423333Y-91172380D02*
X148090000Y-90696190D01*
X147851904Y-91172380D02*
X147851904Y-90172380D01*
X148232857Y-90172380D01*
X148328095Y-90220000D01*
X148375714Y-90267619D01*
X148423333Y-90362857D01*
X148423333Y-90505714D01*
X148375714Y-90600952D01*
X148328095Y-90648571D01*
X148232857Y-90696190D01*
X147851904Y-90696190D01*
X149375714Y-91172380D02*
X148804285Y-91172380D01*
X149090000Y-91172380D02*
X149090000Y-90172380D01*
X148994761Y-90315238D01*
X148899523Y-90410476D01*
X148804285Y-90458095D01*
D14*
X147193095Y-84542380D02*
X147193095Y-85351904D01*
X147240714Y-85447142D01*
X147288333Y-85494761D01*
X147383571Y-85542380D01*
X147574047Y-85542380D01*
X147669285Y-85494761D01*
X147716904Y-85447142D01*
X147764523Y-85351904D01*
X147764523Y-84542380D01*
X148193095Y-84637619D02*
X148240714Y-84590000D01*
X148335952Y-84542380D01*
X148574047Y-84542380D01*
X148669285Y-84590000D01*
X148716904Y-84637619D01*
X148764523Y-84732857D01*
X148764523Y-84828095D01*
X148716904Y-84970952D01*
X148145476Y-85542380D01*
X148764523Y-85542380D01*
%LPC*%
D16*
X140775000Y-78070000D03*
X140775000Y-77470000D03*
X140775000Y-76870000D03*
X138625000Y-78070000D03*
X138625000Y-77470000D03*
X138625000Y-76870000D03*
D17*
X138500000Y-84455000D03*
X138500000Y-83185000D03*
X138500000Y-81915000D03*
X138500000Y-80645000D03*
X143440000Y-80645000D03*
X143440000Y-81915000D03*
X143440000Y-83185000D03*
X143440000Y-84455000D03*
D18*
G36*
X146360779Y-74456144D02*
G01*
X146383834Y-74459563D01*
X146406443Y-74465227D01*
X146428387Y-74473079D01*
X146449457Y-74483044D01*
X146469448Y-74495026D01*
X146488168Y-74508910D01*
X146505438Y-74524562D01*
X146521090Y-74541832D01*
X146534974Y-74560552D01*
X146546956Y-74580543D01*
X146556921Y-74601613D01*
X146564773Y-74623557D01*
X146570437Y-74646166D01*
X146573856Y-74669221D01*
X146575000Y-74692500D01*
X146575000Y-75167500D01*
X146573856Y-75190779D01*
X146570437Y-75213834D01*
X146564773Y-75236443D01*
X146556921Y-75258387D01*
X146546956Y-75279457D01*
X146534974Y-75299448D01*
X146521090Y-75318168D01*
X146505438Y-75335438D01*
X146488168Y-75351090D01*
X146469448Y-75364974D01*
X146449457Y-75376956D01*
X146428387Y-75386921D01*
X146406443Y-75394773D01*
X146383834Y-75400437D01*
X146360779Y-75403856D01*
X146337500Y-75405000D01*
X145762500Y-75405000D01*
X145739221Y-75403856D01*
X145716166Y-75400437D01*
X145693557Y-75394773D01*
X145671613Y-75386921D01*
X145650543Y-75376956D01*
X145630552Y-75364974D01*
X145611832Y-75351090D01*
X145594562Y-75335438D01*
X145578910Y-75318168D01*
X145565026Y-75299448D01*
X145553044Y-75279457D01*
X145543079Y-75258387D01*
X145535227Y-75236443D01*
X145529563Y-75213834D01*
X145526144Y-75190779D01*
X145525000Y-75167500D01*
X145525000Y-74692500D01*
X145526144Y-74669221D01*
X145529563Y-74646166D01*
X145535227Y-74623557D01*
X145543079Y-74601613D01*
X145553044Y-74580543D01*
X145565026Y-74560552D01*
X145578910Y-74541832D01*
X145594562Y-74524562D01*
X145611832Y-74508910D01*
X145630552Y-74495026D01*
X145650543Y-74483044D01*
X145671613Y-74473079D01*
X145693557Y-74465227D01*
X145716166Y-74459563D01*
X145739221Y-74456144D01*
X145762500Y-74455000D01*
X146337500Y-74455000D01*
X146360779Y-74456144D01*
G37*
G36*
X148110779Y-74456144D02*
G01*
X148133834Y-74459563D01*
X148156443Y-74465227D01*
X148178387Y-74473079D01*
X148199457Y-74483044D01*
X148219448Y-74495026D01*
X148238168Y-74508910D01*
X148255438Y-74524562D01*
X148271090Y-74541832D01*
X148284974Y-74560552D01*
X148296956Y-74580543D01*
X148306921Y-74601613D01*
X148314773Y-74623557D01*
X148320437Y-74646166D01*
X148323856Y-74669221D01*
X148325000Y-74692500D01*
X148325000Y-75167500D01*
X148323856Y-75190779D01*
X148320437Y-75213834D01*
X148314773Y-75236443D01*
X148306921Y-75258387D01*
X148296956Y-75279457D01*
X148284974Y-75299448D01*
X148271090Y-75318168D01*
X148255438Y-75335438D01*
X148238168Y-75351090D01*
X148219448Y-75364974D01*
X148199457Y-75376956D01*
X148178387Y-75386921D01*
X148156443Y-75394773D01*
X148133834Y-75400437D01*
X148110779Y-75403856D01*
X148087500Y-75405000D01*
X147512500Y-75405000D01*
X147489221Y-75403856D01*
X147466166Y-75400437D01*
X147443557Y-75394773D01*
X147421613Y-75386921D01*
X147400543Y-75376956D01*
X147380552Y-75364974D01*
X147361832Y-75351090D01*
X147344562Y-75335438D01*
X147328910Y-75318168D01*
X147315026Y-75299448D01*
X147303044Y-75279457D01*
X147293079Y-75258387D01*
X147285227Y-75236443D01*
X147279563Y-75213834D01*
X147276144Y-75190779D01*
X147275000Y-75167500D01*
X147275000Y-74692500D01*
X147276144Y-74669221D01*
X147279563Y-74646166D01*
X147285227Y-74623557D01*
X147293079Y-74601613D01*
X147303044Y-74580543D01*
X147315026Y-74560552D01*
X147328910Y-74541832D01*
X147344562Y-74524562D01*
X147361832Y-74508910D01*
X147380552Y-74495026D01*
X147400543Y-74483044D01*
X147421613Y-74473079D01*
X147443557Y-74465227D01*
X147466166Y-74459563D01*
X147489221Y-74456144D01*
X147512500Y-74455000D01*
X148087500Y-74455000D01*
X148110779Y-74456144D01*
G37*
G36*
X139135779Y-74456144D02*
G01*
X139158834Y-74459563D01*
X139181443Y-74465227D01*
X139203387Y-74473079D01*
X139224457Y-74483044D01*
X139244448Y-74495026D01*
X139263168Y-74508910D01*
X139280438Y-74524562D01*
X139296090Y-74541832D01*
X139309974Y-74560552D01*
X139321956Y-74580543D01*
X139331921Y-74601613D01*
X139339773Y-74623557D01*
X139345437Y-74646166D01*
X139348856Y-74669221D01*
X139350000Y-74692500D01*
X139350000Y-75167500D01*
X139348856Y-75190779D01*
X139345437Y-75213834D01*
X139339773Y-75236443D01*
X139331921Y-75258387D01*
X139321956Y-75279457D01*
X139309974Y-75299448D01*
X139296090Y-75318168D01*
X139280438Y-75335438D01*
X139263168Y-75351090D01*
X139244448Y-75364974D01*
X139224457Y-75376956D01*
X139203387Y-75386921D01*
X139181443Y-75394773D01*
X139158834Y-75400437D01*
X139135779Y-75403856D01*
X139112500Y-75405000D01*
X138537500Y-75405000D01*
X138514221Y-75403856D01*
X138491166Y-75400437D01*
X138468557Y-75394773D01*
X138446613Y-75386921D01*
X138425543Y-75376956D01*
X138405552Y-75364974D01*
X138386832Y-75351090D01*
X138369562Y-75335438D01*
X138353910Y-75318168D01*
X138340026Y-75299448D01*
X138328044Y-75279457D01*
X138318079Y-75258387D01*
X138310227Y-75236443D01*
X138304563Y-75213834D01*
X138301144Y-75190779D01*
X138300000Y-75167500D01*
X138300000Y-74692500D01*
X138301144Y-74669221D01*
X138304563Y-74646166D01*
X138310227Y-74623557D01*
X138318079Y-74601613D01*
X138328044Y-74580543D01*
X138340026Y-74560552D01*
X138353910Y-74541832D01*
X138369562Y-74524562D01*
X138386832Y-74508910D01*
X138405552Y-74495026D01*
X138425543Y-74483044D01*
X138446613Y-74473079D01*
X138468557Y-74465227D01*
X138491166Y-74459563D01*
X138514221Y-74456144D01*
X138537500Y-74455000D01*
X139112500Y-74455000D01*
X139135779Y-74456144D01*
G37*
G36*
X140885779Y-74456144D02*
G01*
X140908834Y-74459563D01*
X140931443Y-74465227D01*
X140953387Y-74473079D01*
X140974457Y-74483044D01*
X140994448Y-74495026D01*
X141013168Y-74508910D01*
X141030438Y-74524562D01*
X141046090Y-74541832D01*
X141059974Y-74560552D01*
X141071956Y-74580543D01*
X141081921Y-74601613D01*
X141089773Y-74623557D01*
X141095437Y-74646166D01*
X141098856Y-74669221D01*
X141100000Y-74692500D01*
X141100000Y-75167500D01*
X141098856Y-75190779D01*
X141095437Y-75213834D01*
X141089773Y-75236443D01*
X141081921Y-75258387D01*
X141071956Y-75279457D01*
X141059974Y-75299448D01*
X141046090Y-75318168D01*
X141030438Y-75335438D01*
X141013168Y-75351090D01*
X140994448Y-75364974D01*
X140974457Y-75376956D01*
X140953387Y-75386921D01*
X140931443Y-75394773D01*
X140908834Y-75400437D01*
X140885779Y-75403856D01*
X140862500Y-75405000D01*
X140287500Y-75405000D01*
X140264221Y-75403856D01*
X140241166Y-75400437D01*
X140218557Y-75394773D01*
X140196613Y-75386921D01*
X140175543Y-75376956D01*
X140155552Y-75364974D01*
X140136832Y-75351090D01*
X140119562Y-75335438D01*
X140103910Y-75318168D01*
X140090026Y-75299448D01*
X140078044Y-75279457D01*
X140068079Y-75258387D01*
X140060227Y-75236443D01*
X140054563Y-75213834D01*
X140051144Y-75190779D01*
X140050000Y-75167500D01*
X140050000Y-74692500D01*
X140051144Y-74669221D01*
X140054563Y-74646166D01*
X140060227Y-74623557D01*
X140068079Y-74601613D01*
X140078044Y-74580543D01*
X140090026Y-74560552D01*
X140103910Y-74541832D01*
X140119562Y-74524562D01*
X140136832Y-74508910D01*
X140155552Y-74495026D01*
X140175543Y-74483044D01*
X140196613Y-74473079D01*
X140218557Y-74465227D01*
X140241166Y-74459563D01*
X140264221Y-74456144D01*
X140287500Y-74455000D01*
X140862500Y-74455000D01*
X140885779Y-74456144D01*
G37*
G36*
X137429504Y-88026204D02*
G01*
X137453773Y-88029804D01*
X137477571Y-88035765D01*
X137500671Y-88044030D01*
X137522849Y-88054520D01*
X137543893Y-88067133D01*
X137563598Y-88081747D01*
X137581777Y-88098223D01*
X137598253Y-88116402D01*
X137612867Y-88136107D01*
X137625480Y-88157151D01*
X137635970Y-88179329D01*
X137644235Y-88202429D01*
X137650196Y-88226227D01*
X137653796Y-88250496D01*
X137655000Y-88275000D01*
X137655000Y-89525000D01*
X137653796Y-89549504D01*
X137650196Y-89573773D01*
X137644235Y-89597571D01*
X137635970Y-89620671D01*
X137625480Y-89642849D01*
X137612867Y-89663893D01*
X137598253Y-89683598D01*
X137581777Y-89701777D01*
X137563598Y-89718253D01*
X137543893Y-89732867D01*
X137522849Y-89745480D01*
X137500671Y-89755970D01*
X137477571Y-89764235D01*
X137453773Y-89770196D01*
X137429504Y-89773796D01*
X137405000Y-89775000D01*
X136480000Y-89775000D01*
X136455496Y-89773796D01*
X136431227Y-89770196D01*
X136407429Y-89764235D01*
X136384329Y-89755970D01*
X136362151Y-89745480D01*
X136341107Y-89732867D01*
X136321402Y-89718253D01*
X136303223Y-89701777D01*
X136286747Y-89683598D01*
X136272133Y-89663893D01*
X136259520Y-89642849D01*
X136249030Y-89620671D01*
X136240765Y-89597571D01*
X136234804Y-89573773D01*
X136231204Y-89549504D01*
X136230000Y-89525000D01*
X136230000Y-88275000D01*
X136231204Y-88250496D01*
X136234804Y-88226227D01*
X136240765Y-88202429D01*
X136249030Y-88179329D01*
X136259520Y-88157151D01*
X136272133Y-88136107D01*
X136286747Y-88116402D01*
X136303223Y-88098223D01*
X136321402Y-88081747D01*
X136341107Y-88067133D01*
X136362151Y-88054520D01*
X136384329Y-88044030D01*
X136407429Y-88035765D01*
X136431227Y-88029804D01*
X136455496Y-88026204D01*
X136480000Y-88025000D01*
X137405000Y-88025000D01*
X137429504Y-88026204D01*
G37*
G36*
X140404504Y-88026204D02*
G01*
X140428773Y-88029804D01*
X140452571Y-88035765D01*
X140475671Y-88044030D01*
X140497849Y-88054520D01*
X140518893Y-88067133D01*
X140538598Y-88081747D01*
X140556777Y-88098223D01*
X140573253Y-88116402D01*
X140587867Y-88136107D01*
X140600480Y-88157151D01*
X140610970Y-88179329D01*
X140619235Y-88202429D01*
X140625196Y-88226227D01*
X140628796Y-88250496D01*
X140630000Y-88275000D01*
X140630000Y-89525000D01*
X140628796Y-89549504D01*
X140625196Y-89573773D01*
X140619235Y-89597571D01*
X140610970Y-89620671D01*
X140600480Y-89642849D01*
X140587867Y-89663893D01*
X140573253Y-89683598D01*
X140556777Y-89701777D01*
X140538598Y-89718253D01*
X140518893Y-89732867D01*
X140497849Y-89745480D01*
X140475671Y-89755970D01*
X140452571Y-89764235D01*
X140428773Y-89770196D01*
X140404504Y-89773796D01*
X140380000Y-89775000D01*
X139455000Y-89775000D01*
X139430496Y-89773796D01*
X139406227Y-89770196D01*
X139382429Y-89764235D01*
X139359329Y-89755970D01*
X139337151Y-89745480D01*
X139316107Y-89732867D01*
X139296402Y-89718253D01*
X139278223Y-89701777D01*
X139261747Y-89683598D01*
X139247133Y-89663893D01*
X139234520Y-89642849D01*
X139224030Y-89620671D01*
X139215765Y-89597571D01*
X139209804Y-89573773D01*
X139206204Y-89549504D01*
X139205000Y-89525000D01*
X139205000Y-88275000D01*
X139206204Y-88250496D01*
X139209804Y-88226227D01*
X139215765Y-88202429D01*
X139224030Y-88179329D01*
X139234520Y-88157151D01*
X139247133Y-88136107D01*
X139261747Y-88116402D01*
X139278223Y-88098223D01*
X139296402Y-88081747D01*
X139316107Y-88067133D01*
X139337151Y-88054520D01*
X139359329Y-88044030D01*
X139382429Y-88035765D01*
X139406227Y-88029804D01*
X139430496Y-88026204D01*
X139455000Y-88025000D01*
X140380000Y-88025000D01*
X140404504Y-88026204D01*
G37*
G36*
X147589504Y-88026204D02*
G01*
X147613773Y-88029804D01*
X147637571Y-88035765D01*
X147660671Y-88044030D01*
X147682849Y-88054520D01*
X147703893Y-88067133D01*
X147723598Y-88081747D01*
X147741777Y-88098223D01*
X147758253Y-88116402D01*
X147772867Y-88136107D01*
X147785480Y-88157151D01*
X147795970Y-88179329D01*
X147804235Y-88202429D01*
X147810196Y-88226227D01*
X147813796Y-88250496D01*
X147815000Y-88275000D01*
X147815000Y-89525000D01*
X147813796Y-89549504D01*
X147810196Y-89573773D01*
X147804235Y-89597571D01*
X147795970Y-89620671D01*
X147785480Y-89642849D01*
X147772867Y-89663893D01*
X147758253Y-89683598D01*
X147741777Y-89701777D01*
X147723598Y-89718253D01*
X147703893Y-89732867D01*
X147682849Y-89745480D01*
X147660671Y-89755970D01*
X147637571Y-89764235D01*
X147613773Y-89770196D01*
X147589504Y-89773796D01*
X147565000Y-89775000D01*
X146640000Y-89775000D01*
X146615496Y-89773796D01*
X146591227Y-89770196D01*
X146567429Y-89764235D01*
X146544329Y-89755970D01*
X146522151Y-89745480D01*
X146501107Y-89732867D01*
X146481402Y-89718253D01*
X146463223Y-89701777D01*
X146446747Y-89683598D01*
X146432133Y-89663893D01*
X146419520Y-89642849D01*
X146409030Y-89620671D01*
X146400765Y-89597571D01*
X146394804Y-89573773D01*
X146391204Y-89549504D01*
X146390000Y-89525000D01*
X146390000Y-88275000D01*
X146391204Y-88250496D01*
X146394804Y-88226227D01*
X146400765Y-88202429D01*
X146409030Y-88179329D01*
X146419520Y-88157151D01*
X146432133Y-88136107D01*
X146446747Y-88116402D01*
X146463223Y-88098223D01*
X146481402Y-88081747D01*
X146501107Y-88067133D01*
X146522151Y-88054520D01*
X146544329Y-88044030D01*
X146567429Y-88035765D01*
X146591227Y-88029804D01*
X146615496Y-88026204D01*
X146640000Y-88025000D01*
X147565000Y-88025000D01*
X147589504Y-88026204D01*
G37*
G36*
X150564504Y-88026204D02*
G01*
X150588773Y-88029804D01*
X150612571Y-88035765D01*
X150635671Y-88044030D01*
X150657849Y-88054520D01*
X150678893Y-88067133D01*
X150698598Y-88081747D01*
X150716777Y-88098223D01*
X150733253Y-88116402D01*
X150747867Y-88136107D01*
X150760480Y-88157151D01*
X150770970Y-88179329D01*
X150779235Y-88202429D01*
X150785196Y-88226227D01*
X150788796Y-88250496D01*
X150790000Y-88275000D01*
X150790000Y-89525000D01*
X150788796Y-89549504D01*
X150785196Y-89573773D01*
X150779235Y-89597571D01*
X150770970Y-89620671D01*
X150760480Y-89642849D01*
X150747867Y-89663893D01*
X150733253Y-89683598D01*
X150716777Y-89701777D01*
X150698598Y-89718253D01*
X150678893Y-89732867D01*
X150657849Y-89745480D01*
X150635671Y-89755970D01*
X150612571Y-89764235D01*
X150588773Y-89770196D01*
X150564504Y-89773796D01*
X150540000Y-89775000D01*
X149615000Y-89775000D01*
X149590496Y-89773796D01*
X149566227Y-89770196D01*
X149542429Y-89764235D01*
X149519329Y-89755970D01*
X149497151Y-89745480D01*
X149476107Y-89732867D01*
X149456402Y-89718253D01*
X149438223Y-89701777D01*
X149421747Y-89683598D01*
X149407133Y-89663893D01*
X149394520Y-89642849D01*
X149384030Y-89620671D01*
X149375765Y-89597571D01*
X149369804Y-89573773D01*
X149366204Y-89549504D01*
X149365000Y-89525000D01*
X149365000Y-88275000D01*
X149366204Y-88250496D01*
X149369804Y-88226227D01*
X149375765Y-88202429D01*
X149384030Y-88179329D01*
X149394520Y-88157151D01*
X149407133Y-88136107D01*
X149421747Y-88116402D01*
X149438223Y-88098223D01*
X149456402Y-88081747D01*
X149476107Y-88067133D01*
X149497151Y-88054520D01*
X149519329Y-88044030D01*
X149542429Y-88035765D01*
X149566227Y-88029804D01*
X149590496Y-88026204D01*
X149615000Y-88025000D01*
X150540000Y-88025000D01*
X150564504Y-88026204D01*
G37*
D19*
X147040000Y-81915000D03*
X147040000Y-80645000D03*
X147040000Y-79375000D03*
X147040000Y-78105000D03*
M02*
