G04 #@! TF.GenerationSoftware,KiCad,Pcbnew,5.1.5+dfsg1-2build2*
G04 #@! TF.CreationDate,2020-12-04T16:47:08+01:00*
G04 #@! TF.ProjectId,Lightdome_SensorPCB,4c696768-7464-46f6-9d65-5f53656e736f,1*
G04 #@! TF.SameCoordinates,Original*
G04 #@! TF.FileFunction,Soldermask,Top*
G04 #@! TF.FilePolarity,Negative*
%FSLAX46Y46*%
G04 Gerber Fmt 4.6, Leading zero omitted, Abs format (unit mm)*
G04 Created by KiCad (PCBNEW 5.1.5+dfsg1-2build2) date 2020-12-04 16:47:08*
%MOMM*%
%LPD*%
G04 APERTURE LIST*
%ADD10C,0.152400*%
G04 APERTURE END LIST*
D10*
G36*
X137479848Y-88029417D02*
G01*
X137520615Y-88041784D01*
X137558180Y-88061862D01*
X137591111Y-88088889D01*
X137618138Y-88121820D01*
X137638216Y-88159385D01*
X137650583Y-88200152D01*
X137655000Y-88244999D01*
X137655000Y-89555001D01*
X137650583Y-89599848D01*
X137638216Y-89640615D01*
X137618138Y-89678180D01*
X137591111Y-89711111D01*
X137558180Y-89738138D01*
X137520615Y-89758216D01*
X137479848Y-89770583D01*
X137435001Y-89775000D01*
X136449999Y-89775000D01*
X136405152Y-89770583D01*
X136364385Y-89758216D01*
X136326820Y-89738138D01*
X136293889Y-89711111D01*
X136266862Y-89678180D01*
X136246784Y-89640615D01*
X136234417Y-89599848D01*
X136230000Y-89555001D01*
X136230000Y-88244999D01*
X136234417Y-88200152D01*
X136246784Y-88159385D01*
X136266862Y-88121820D01*
X136293889Y-88088889D01*
X136326820Y-88061862D01*
X136364385Y-88041784D01*
X136405152Y-88029417D01*
X136449999Y-88025000D01*
X137435001Y-88025000D01*
X137479848Y-88029417D01*
G37*
G36*
X140454848Y-88029417D02*
G01*
X140495615Y-88041784D01*
X140533180Y-88061862D01*
X140566111Y-88088889D01*
X140593138Y-88121820D01*
X140613216Y-88159385D01*
X140625583Y-88200152D01*
X140630000Y-88244999D01*
X140630000Y-89555001D01*
X140625583Y-89599848D01*
X140613216Y-89640615D01*
X140593138Y-89678180D01*
X140566111Y-89711111D01*
X140533180Y-89738138D01*
X140495615Y-89758216D01*
X140454848Y-89770583D01*
X140410001Y-89775000D01*
X139424999Y-89775000D01*
X139380152Y-89770583D01*
X139339385Y-89758216D01*
X139301820Y-89738138D01*
X139268889Y-89711111D01*
X139241862Y-89678180D01*
X139221784Y-89640615D01*
X139209417Y-89599848D01*
X139205000Y-89555001D01*
X139205000Y-88244999D01*
X139209417Y-88200152D01*
X139221784Y-88159385D01*
X139241862Y-88121820D01*
X139268889Y-88088889D01*
X139301820Y-88061862D01*
X139339385Y-88041784D01*
X139380152Y-88029417D01*
X139424999Y-88025000D01*
X140410001Y-88025000D01*
X140454848Y-88029417D01*
G37*
G36*
X150614848Y-88029417D02*
G01*
X150655615Y-88041784D01*
X150693180Y-88061862D01*
X150726111Y-88088889D01*
X150753138Y-88121820D01*
X150773216Y-88159385D01*
X150785583Y-88200152D01*
X150790000Y-88244999D01*
X150790000Y-89555001D01*
X150785583Y-89599848D01*
X150773216Y-89640615D01*
X150753138Y-89678180D01*
X150726111Y-89711111D01*
X150693180Y-89738138D01*
X150655615Y-89758216D01*
X150614848Y-89770583D01*
X150570001Y-89775000D01*
X149584999Y-89775000D01*
X149540152Y-89770583D01*
X149499385Y-89758216D01*
X149461820Y-89738138D01*
X149428889Y-89711111D01*
X149401862Y-89678180D01*
X149381784Y-89640615D01*
X149369417Y-89599848D01*
X149365000Y-89555001D01*
X149365000Y-88244999D01*
X149369417Y-88200152D01*
X149381784Y-88159385D01*
X149401862Y-88121820D01*
X149428889Y-88088889D01*
X149461820Y-88061862D01*
X149499385Y-88041784D01*
X149540152Y-88029417D01*
X149584999Y-88025000D01*
X150570001Y-88025000D01*
X150614848Y-88029417D01*
G37*
G36*
X147639848Y-88029417D02*
G01*
X147680615Y-88041784D01*
X147718180Y-88061862D01*
X147751111Y-88088889D01*
X147778138Y-88121820D01*
X147798216Y-88159385D01*
X147810583Y-88200152D01*
X147815000Y-88244999D01*
X147815000Y-89555001D01*
X147810583Y-89599848D01*
X147798216Y-89640615D01*
X147778138Y-89678180D01*
X147751111Y-89711111D01*
X147718180Y-89738138D01*
X147680615Y-89758216D01*
X147639848Y-89770583D01*
X147595001Y-89775000D01*
X146609999Y-89775000D01*
X146565152Y-89770583D01*
X146524385Y-89758216D01*
X146486820Y-89738138D01*
X146453889Y-89711111D01*
X146426862Y-89678180D01*
X146406784Y-89640615D01*
X146394417Y-89599848D01*
X146390000Y-89555001D01*
X146390000Y-88244999D01*
X146394417Y-88200152D01*
X146406784Y-88159385D01*
X146426862Y-88121820D01*
X146453889Y-88088889D01*
X146486820Y-88061862D01*
X146524385Y-88041784D01*
X146565152Y-88029417D01*
X146609999Y-88025000D01*
X147595001Y-88025000D01*
X147639848Y-88029417D01*
G37*
G36*
X139485000Y-84755000D02*
G01*
X137515000Y-84755000D01*
X137515000Y-84155000D01*
X139485000Y-84155000D01*
X139485000Y-84755000D01*
G37*
G36*
X144425000Y-84755000D02*
G01*
X142455000Y-84755000D01*
X142455000Y-84155000D01*
X144425000Y-84155000D01*
X144425000Y-84755000D01*
G37*
G36*
X139485000Y-83485000D02*
G01*
X137515000Y-83485000D01*
X137515000Y-82885000D01*
X139485000Y-82885000D01*
X139485000Y-83485000D01*
G37*
G36*
X144425000Y-83485000D02*
G01*
X142455000Y-83485000D01*
X142455000Y-82885000D01*
X144425000Y-82885000D01*
X144425000Y-83485000D01*
G37*
G36*
X147840000Y-82265000D02*
G01*
X146240000Y-82265000D01*
X146240000Y-81565000D01*
X147840000Y-81565000D01*
X147840000Y-82265000D01*
G37*
G36*
X139485000Y-82215000D02*
G01*
X137515000Y-82215000D01*
X137515000Y-81615000D01*
X139485000Y-81615000D01*
X139485000Y-82215000D01*
G37*
G36*
X144425000Y-82215000D02*
G01*
X142455000Y-82215000D01*
X142455000Y-81615000D01*
X144425000Y-81615000D01*
X144425000Y-82215000D01*
G37*
G36*
X147840000Y-80995000D02*
G01*
X146240000Y-80995000D01*
X146240000Y-80295000D01*
X147840000Y-80295000D01*
X147840000Y-80995000D01*
G37*
G36*
X144425000Y-80945000D02*
G01*
X142455000Y-80945000D01*
X142455000Y-80345000D01*
X144425000Y-80345000D01*
X144425000Y-80945000D01*
G37*
G36*
X139485000Y-80945000D02*
G01*
X137515000Y-80945000D01*
X137515000Y-80345000D01*
X139485000Y-80345000D01*
X139485000Y-80945000D01*
G37*
G36*
X147840000Y-79725000D02*
G01*
X146240000Y-79725000D01*
X146240000Y-79025000D01*
X147840000Y-79025000D01*
X147840000Y-79725000D01*
G37*
G36*
X147840000Y-78455000D02*
G01*
X146240000Y-78455000D01*
X146240000Y-77755000D01*
X147840000Y-77755000D01*
X147840000Y-78455000D01*
G37*
G36*
X139125000Y-78270000D02*
G01*
X138125000Y-78270000D01*
X138125000Y-77870000D01*
X139125000Y-77870000D01*
X139125000Y-78270000D01*
G37*
G36*
X141275000Y-78270000D02*
G01*
X140275000Y-78270000D01*
X140275000Y-77870000D01*
X141275000Y-77870000D01*
X141275000Y-78270000D01*
G37*
G36*
X139125000Y-77670000D02*
G01*
X138125000Y-77670000D01*
X138125000Y-77270000D01*
X139125000Y-77270000D01*
X139125000Y-77670000D01*
G37*
G36*
X141275000Y-77670000D02*
G01*
X140275000Y-77670000D01*
X140275000Y-77270000D01*
X141275000Y-77270000D01*
X141275000Y-77670000D01*
G37*
G36*
X139125000Y-77070000D02*
G01*
X138125000Y-77070000D01*
X138125000Y-76670000D01*
X139125000Y-76670000D01*
X139125000Y-77070000D01*
G37*
G36*
X141275000Y-77070000D02*
G01*
X140275000Y-77070000D01*
X140275000Y-76670000D01*
X141275000Y-76670000D01*
X141275000Y-77070000D01*
G37*
G36*
X146403908Y-74459320D02*
G01*
X146443729Y-74471400D01*
X146480423Y-74491012D01*
X146512589Y-74517411D01*
X146538988Y-74549577D01*
X146558600Y-74586271D01*
X146570680Y-74626092D01*
X146575000Y-74669954D01*
X146575000Y-75190046D01*
X146570680Y-75233908D01*
X146558600Y-75273729D01*
X146538988Y-75310423D01*
X146512589Y-75342589D01*
X146480423Y-75368988D01*
X146443729Y-75388600D01*
X146403908Y-75400680D01*
X146360046Y-75405000D01*
X145739954Y-75405000D01*
X145696092Y-75400680D01*
X145656271Y-75388600D01*
X145619577Y-75368988D01*
X145587411Y-75342589D01*
X145561012Y-75310423D01*
X145541400Y-75273729D01*
X145529320Y-75233908D01*
X145525000Y-75190046D01*
X145525000Y-74669954D01*
X145529320Y-74626092D01*
X145541400Y-74586271D01*
X145561012Y-74549577D01*
X145587411Y-74517411D01*
X145619577Y-74491012D01*
X145656271Y-74471400D01*
X145696092Y-74459320D01*
X145739954Y-74455000D01*
X146360046Y-74455000D01*
X146403908Y-74459320D01*
G37*
G36*
X148153908Y-74459320D02*
G01*
X148193729Y-74471400D01*
X148230423Y-74491012D01*
X148262589Y-74517411D01*
X148288988Y-74549577D01*
X148308600Y-74586271D01*
X148320680Y-74626092D01*
X148325000Y-74669954D01*
X148325000Y-75190046D01*
X148320680Y-75233908D01*
X148308600Y-75273729D01*
X148288988Y-75310423D01*
X148262589Y-75342589D01*
X148230423Y-75368988D01*
X148193729Y-75388600D01*
X148153908Y-75400680D01*
X148110046Y-75405000D01*
X147489954Y-75405000D01*
X147446092Y-75400680D01*
X147406271Y-75388600D01*
X147369577Y-75368988D01*
X147337411Y-75342589D01*
X147311012Y-75310423D01*
X147291400Y-75273729D01*
X147279320Y-75233908D01*
X147275000Y-75190046D01*
X147275000Y-74669954D01*
X147279320Y-74626092D01*
X147291400Y-74586271D01*
X147311012Y-74549577D01*
X147337411Y-74517411D01*
X147369577Y-74491012D01*
X147406271Y-74471400D01*
X147446092Y-74459320D01*
X147489954Y-74455000D01*
X148110046Y-74455000D01*
X148153908Y-74459320D01*
G37*
G36*
X139178908Y-74459320D02*
G01*
X139218729Y-74471400D01*
X139255423Y-74491012D01*
X139287589Y-74517411D01*
X139313988Y-74549577D01*
X139333600Y-74586271D01*
X139345680Y-74626092D01*
X139350000Y-74669954D01*
X139350000Y-75190046D01*
X139345680Y-75233908D01*
X139333600Y-75273729D01*
X139313988Y-75310423D01*
X139287589Y-75342589D01*
X139255423Y-75368988D01*
X139218729Y-75388600D01*
X139178908Y-75400680D01*
X139135046Y-75405000D01*
X138514954Y-75405000D01*
X138471092Y-75400680D01*
X138431271Y-75388600D01*
X138394577Y-75368988D01*
X138362411Y-75342589D01*
X138336012Y-75310423D01*
X138316400Y-75273729D01*
X138304320Y-75233908D01*
X138300000Y-75190046D01*
X138300000Y-74669954D01*
X138304320Y-74626092D01*
X138316400Y-74586271D01*
X138336012Y-74549577D01*
X138362411Y-74517411D01*
X138394577Y-74491012D01*
X138431271Y-74471400D01*
X138471092Y-74459320D01*
X138514954Y-74455000D01*
X139135046Y-74455000D01*
X139178908Y-74459320D01*
G37*
G36*
X140928908Y-74459320D02*
G01*
X140968729Y-74471400D01*
X141005423Y-74491012D01*
X141037589Y-74517411D01*
X141063988Y-74549577D01*
X141083600Y-74586271D01*
X141095680Y-74626092D01*
X141100000Y-74669954D01*
X141100000Y-75190046D01*
X141095680Y-75233908D01*
X141083600Y-75273729D01*
X141063988Y-75310423D01*
X141037589Y-75342589D01*
X141005423Y-75368988D01*
X140968729Y-75388600D01*
X140928908Y-75400680D01*
X140885046Y-75405000D01*
X140264954Y-75405000D01*
X140221092Y-75400680D01*
X140181271Y-75388600D01*
X140144577Y-75368988D01*
X140112411Y-75342589D01*
X140086012Y-75310423D01*
X140066400Y-75273729D01*
X140054320Y-75233908D01*
X140050000Y-75190046D01*
X140050000Y-74669954D01*
X140054320Y-74626092D01*
X140066400Y-74586271D01*
X140086012Y-74549577D01*
X140112411Y-74517411D01*
X140144577Y-74491012D01*
X140181271Y-74471400D01*
X140221092Y-74459320D01*
X140264954Y-74455000D01*
X140885046Y-74455000D01*
X140928908Y-74459320D01*
G37*
M02*
